<svg xmlns="http://www.w3.org/2000/svg" viewBox="0 0 400 400" fill="none">
  <defs>
    <radialGradient id="glow" cx="50%" cy="50%" r="50%">
      <stop offset="0%" stop-color="#E9D5FF" stop-opacity="0.5"/>
      <stop offset="100%" stop-color="#F5F0FF" stop-opacity="0"/>
    </radialGradient>
  </defs>
  <circle cx="200" cy="200" r="180" fill="url(#glow)"/>
  <!-- Olive wreath frame -->
  <path d="M200 30 Q320 30 350 150 Q370 270 250 350 Q200 380 150 350 Q30 270 50 150 Q80 30 200 30Z" stroke="#7C3AED" stroke-width="2" fill="none" opacity="0.3"/>
  <!-- Leaves on wreath -->
  <ellipse cx="120" cy="80" rx="15" ry="8" fill="#7C3AED" opacity="0.2" transform="rotate(-30 120 80)"/>
  <ellipse cx="280" cy="80" rx="15" ry="8" fill="#7C3AED" opacity="0.2" transform="rotate(30 280 80)"/>
  <ellipse cx="60" cy="180" rx="15" ry="8" fill="#7C3AED" opacity="0.2" transform="rotate(-60 60 180)"/>
  <ellipse cx="340" cy="180" rx="15" ry="8" fill="#7C3AED" opacity="0.2" transform="rotate(60 340 180)"/>
  <ellipse cx="100" cy="310" rx="15" ry="8" fill="#7C3AED" opacity="0.2" transform="rotate(-120 100 310)"/>
  <ellipse cx="300" cy="310" rx="15" ry="8" fill="#7C3AED" opacity="0.2" transform="rotate(120 300 310)"/>
  <!-- Puppet couple (simplified) -->
  <g transform="translate(130, 110)">
    <!-- Him -->
    <circle cx="40" cy="50" r="30" fill="#FBBF68"/>
    <circle cx="30" cy="47" r="4" fill="#1E1B4B"/>
    <circle cx="50" cy="47" r="4" fill="#1E1B4B"/>
    <path d="M30 60 Q40 72 50 60" stroke="#1E1B4B" stroke-width="2" fill="none"/>
    <path d="M12 42 Q18 15 40 10 Q62 15 68 42" fill="#4A3728"/>
    <rect x="15" y="75" width="50" height="80" rx="10" fill="#6B21A8" opacity="0.8"/>
  </g>
  <g transform="translate(195, 110)">
    <!-- Her -->
    <circle cx="45" cy="50" r="30" fill="#FBBF68"/>
    <circle cx="35" cy="47" r="4" fill="#1E1B4B"/>
    <circle cx="55" cy="47" r="4" fill="#1E1B4B"/>
    <path d="M35 60 Q45 72 55 60" stroke="#1E1B4B" stroke-width="2" fill="none"/>
    <path d="M15 45 Q18 8 45 5 Q72 8 75 45 L78 80 Q45 65 12 80Z" fill="#2D1810"/>
    <circle cx="25" cy="28" r="6" fill="#A855F7" opacity="0.7"/>
    <circle cx="40" cy="18" r="6" fill="#C084FC" opacity="0.7"/>
    <circle cx="55" cy="18" r="6" fill="#A855F7" opacity="0.7"/>
    <circle cx="68" cy="28" r="6" fill="#C084FC" opacity="0.7"/>
    <path d="M20 75 L5 180 L85 180 L70 75Z" fill="#D8B4FE"/>
  </g>
  <!-- Heart between -->
  <text x="200" y="145" font-size="24" text-anchor="middle" fill="#A855F7">♥</text>
  <!-- Greek text -->
  <text x="200" y="340" font-size="12" text-anchor="middle" fill="#7C3AED" opacity="0.4" letter-spacing="4">Γ &amp; Μ</text>
</svg>
