<svg xmlns="http://www.w3.org/2000/svg" viewBox="0 0 200 40" fill="none">
  <!-- Greek Key / Meander pattern -->
  <g stroke="#7C3AED" stroke-width="2" opacity="0.15" fill="none">
    <!-- Pattern unit 1 -->
    <path d="M0 20 H10 V5 H25 V15 H15 V25 H30 V35 H5 V20"/>
    <!-- Pattern unit 2 -->
    <path d="M30 20 H40 V5 H55 V15 H45 V25 H60 V35 H35 V20"/>
    <!-- Pattern unit 3 -->
    <path d="M60 20 H70 V5 H85 V15 H75 V25 H90 V35 H65 V20"/>
    <!-- Pattern unit 4 -->
    <path d="M90 20 H100 V5 H115 V15 H105 V25 H120 V35 H95 V20"/>
    <!-- Pattern unit 5 -->
    <path d="M120 20 H130 V5 H145 V15 H135 V25 H150 V35 H125 V20"/>
    <!-- Pattern unit 6 -->
    <path d="M150 20 H160 V5 H175 V15 H165 V25 H180 V35 H155 V20"/>
    <!-- Pattern unit 7 -->
    <path d="M180 20 H190 V5 H200 V15 H195 V25 H200 V35 H185 V20"/>
  </g>
</svg>
