<svg xmlns="http://www.w3.org/2000/svg" viewBox="0 0 1200 600" fill="none">
  <defs>
    <linearGradient id="sky" x1="0" y1="0" x2="0" y2="600" gradientUnits="userSpaceOnUse">
      <stop offset="0%" stop-color="#E9D5FF"/>
      <stop offset="40%" stop-color="#F5F0FF"/>
      <stop offset="100%" stop-color="#FAF5FF"/>
    </linearGradient>
  </defs>
  <rect width="1200" height="600" fill="url(#sky)"/>
  <!-- Santorini-style buildings -->
  <!-- Building 1 -->
  <rect x="100" y="200" width="120" height="250" rx="5" fill="white" opacity="0.9"/>
  <rect x="110" y="190" width="100" height="20" rx="3" fill="#EDE9FE"/>
  <!-- Dome -->
  <circle cx="300" cy="250" r="60" fill="#7C3AED" opacity="0.3"/>
  <rect x="250" y="250" width="100" height="200" rx="5" fill="white" opacity="0.9"/>
  <!-- Building 2 -->
  <rect x="380" y="230" width="100" height="220" rx="5" fill="white" opacity="0.85"/>
  <rect x="390" y="220" width="80" height="20" rx="3" fill="#EDE9FE"/>
  <!-- Church dome -->
  <circle cx="520" cy="200" r="50" fill="#6B21A8" opacity="0.25"/>
  <rect x="490" y="200" width="60" height="250" rx="5" fill="white" opacity="0.9"/>
  <line x1="520" y1="155" x2="520" y2="140" stroke="#7C3AED" stroke-width="3" opacity="0.4"/>
  <line x1="512" y1="147" x2="528" y2="147" stroke="#7C3AED" stroke-width="3" opacity="0.4"/>
  <!-- Building 3 -->
  <rect x="580" y="260" width="140" height="190" rx="5" fill="white" opacity="0.9"/>
  <rect x="590" y="250" width="120" height="20" rx="3" fill="#EDE9FE"/>
  <!-- Building 4 -->
  <rect x="750" y="220" width="110" height="230" rx="5" fill="white" opacity="0.85"/>
  <!-- Dome 2 -->
  <circle cx="900" cy="230" r="55" fill="#7C3AED" opacity="0.25"/>
  <rect x="860" y="230" width="80" height="220" rx="5" fill="white" opacity="0.9"/>
  <!-- Building 5 -->
  <rect x="960" y="250" width="130" height="200" rx="5" fill="white" opacity="0.9"/>
  <!-- Windows -->
  <rect x="130" y="250" width="20" height="25" rx="10" fill="#A855F7" opacity="0.15"/>
  <rect x="170" y="250" width="20" height="25" rx="10" fill="#A855F7" opacity="0.15"/>
  <rect x="130" y="300" width="20" height="25" rx="10" fill="#A855F7" opacity="0.15"/>
  <rect x="170" y="300" width="20" height="25" rx="10" fill="#A855F7" opacity="0.15"/>
  <rect x="400" y="270" width="18" height="22" rx="9" fill="#A855F7" opacity="0.15"/>
  <rect x="440" y="270" width="18" height="22" rx="9" fill="#A855F7" opacity="0.15"/>
  <rect x="610" y="290" width="20" height="25" rx="10" fill="#A855F7" opacity="0.15"/>
  <rect x="660" y="290" width="20" height="25" rx="10" fill="#A855F7" opacity="0.15"/>
  <rect x="770" y="270" width="18" height="22" rx="9" fill="#A855F7" opacity="0.15"/>
  <rect x="820" y="270" width="18" height="22" rx="9" fill="#A855F7" opacity="0.15"/>
  <rect x="990" y="290" width="20" height="25" rx="10" fill="#A855F7" opacity="0.15"/>
  <rect x="1040" y="290" width="20" height="25" rx="10" fill="#A855F7" opacity="0.15"/>
  <!-- Sea -->
  <rect x="0" y="450" width="1200" height="150" fill="#A78BFA" opacity="0.1" rx="0"/>
  <path d="M0 460 Q100 440 200 460 Q300 480 400 460 Q500 440 600 460 Q700 480 800 460 Q900 440 1000 460 Q1100 480 1200 460 V600 H0Z" fill="#7C3AED" opacity="0.06"/>
  <!-- Sun -->
  <circle cx="950" cy="100" r="50" fill="#FBBF24" opacity="0.15"/>
</svg>
