<?xml version="1.0" standalone="no"?>
<!DOCTYPE svg PUBLIC "-//W3C//DTD SVG 20010904//EN"
 "http://www.w3.org/TR/2001/REC-SVG-20010904/DTD/svg10.dtd">
<svg version="1.0" xmlns="http://www.w3.org/2000/svg"
 width="1200.000000pt" height="630.000000pt" viewBox="0 0 1200.000000 630.000000"
 preserveAspectRatio="xMidYMid meet">

<g transform="translate(0.000000,630.000000) scale(0.100000,-0.100000)"
fill="#000000" stroke="none">
<path d="M5802 5110 c0 -14 2 -19 5 -12 2 6 2 18 0 25 -3 6 -5 1 -5 -13z"/>
<path d="M5868 4973 c7 -3 16 -2 19 1 4 3 -2 6 -13 5 -11 0 -14 -3 -6 -6z"/>
<path d="M4534 4608 l-19 -23 23 19 c12 11 22 21 22 23 0 8 -8 2 -26 -19z"/>
<path d="M4606 4483 c-6 -14 -5 -15 5 -6 7 7 10 15 7 18 -3 3 -9 -2 -12 -12z"/>
<path d="M4920 4350 c0 -11 2 -20 4 -20 2 0 6 9 9 20 3 11 1 20 -4 20 -5 0 -9
-9 -9 -20z"/>
<path d="M5110 4306 c0 -2 8 -10 18 -17 15 -13 16 -12 3 4 -13 16 -21 21 -21
13z"/>
<path d="M4575 4260 c-9 -16 -13 -30 -11 -30 3 0 12 14 21 30 9 17 13 30 11
30 -3 0 -12 -13 -21 -30z"/>
<path d="M4528 4263 c6 -2 18 -2 25 0 6 3 1 5 -13 5 -14 0 -19 -2 -12 -5z"/>
<path d="M4412 4113 c-6 -20 -7 -32 -2 -27 10 10 25 64 18 64 -3 0 -10 -16
-16 -37z"/>
<path d="M4777 4119 c7 -7 15 -10 18 -7 3 3 -2 9 -12 12 -14 6 -15 5 -6 -5z"/>
<path d="M4376 4045 c-9 -26 -7 -32 5 -12 6 10 9 21 6 23 -2 3 -7 -2 -11 -11z"/>
<path d="M5016 4037 c3 -10 9 -15 12 -12 3 3 0 11 -7 18 -10 9 -11 8 -5 -6z"/>
<path d="M2981 4026 c-9 -11 -9 -16 1 -22 7 -4 10 -4 6 1 -4 4 -3 14 3 22 6 7
9 13 6 13 -2 0 -10 -6 -16 -14z"/>
<path d="M3009 4023 c-13 -16 -12 -17 4 -4 9 7 17 15 17 17 0 8 -8 3 -21 -13z"/>
<path d="M4916 3897 c3 -10 9 -15 12 -12 3 3 0 11 -7 18 -10 9 -11 8 -5 -6z"/>
<path d="M4958 3712 c-3 -11 0 -19 7 -19 7 0 10 8 7 19 -2 10 -6 18 -7 18 -1
0 -5 -8 -7 -18z"/>
<path d="M4609 3543 l-24 -28 28 24 c25 23 32 31 24 31 -2 0 -14 -12 -28 -27z"/>
<path d="M4672 3550 c0 -14 2 -19 5 -12 2 6 2 18 0 25 -3 6 -5 1 -5 -13z"/>
<path d="M4990 3551 c0 -6 4 -13 10 -16 6 -3 7 1 4 9 -7 18 -14 21 -14 7z"/>
<path d="M5086 3512 c-2 -4 4 -8 14 -8 10 0 16 4 14 8 -3 4 -9 8 -14 8 -5 0
-11 -4 -14 -8z"/>
<path d="M4570 3490 c6 -11 13 -20 16 -20 2 0 0 9 -6 20 -6 11 -13 20 -16 20
-2 0 0 -9 6 -20z"/>
<path d="M4997 3499 c5 -5 22 -5 38 0 30 9 30 9 -8 8 -21 0 -34 -4 -30 -8z"/>
<path d="M4847 3488 c2 -5 15 -8 28 -8 13 0 26 3 28 8 3 4 -10 7 -28 7 -18 0
-31 -3 -28 -7z"/>
<path d="M5120 3485 c-7 -9 -11 -17 -9 -20 3 -2 10 5 17 15 14 24 10 26 -8 5z"/>
<path d="M5180 3486 c0 -2 7 -7 16 -10 8 -3 12 -2 9 4 -6 10 -25 14 -25 6z"/>
<path d="M4737 3458 c2 -5 -3 -8 -11 -8 -9 0 -16 -5 -16 -11 0 -5 5 -7 11 -4
6 4 5 -2 -2 -14 -10 -14 -16 -17 -21 -8 -6 9 -12 7 -22 -5 -15 -21 -62 -24
-69 -5 -3 8 -10 7 -26 -7 -26 -23 -27 -39 -3 -34 9 2 16 10 14 17 -1 7 3 11
10 8 7 -2 12 -10 11 -16 -4 -14 14 -15 22 -1 11 17 35 12 28 -7 -4 -11 -3 -14
6 -9 6 4 11 13 10 19 -6 47 8 44 35 -7 11 -21 12 -35 5 -50 -10 -20 -9 -20 5
-2 15 18 16 18 27 -8 7 -14 20 -26 30 -26 10 0 21 -9 24 -21 5 -14 13 -19 26
-16 11 3 19 0 19 -6 0 -7 4 -6 9 2 5 8 16 11 27 7 14 -5 13 -2 -4 12 -16 12
-21 24 -17 37 6 18 6 18 -5 2 -6 -9 -9 -21 -6 -26 3 -5 -2 -11 -13 -14 -11 -2
-23 3 -30 14 -6 11 -17 19 -25 19 -22 0 -57 67 -50 96 7 27 38 49 56 38 8 -5
9 -1 4 11 -4 11 -2 22 6 27 8 5 -3 7 -29 6 -22 -2 -39 -6 -36 -10z m23 -22 c0
-3 -4 -8 -10 -11 -5 -3 -10 -1 -10 4 0 6 5 11 10 11 6 0 10 -2 10 -4z m-38
-48 c-7 -7 -12 -8 -12 -2 0 6 3 14 7 17 3 4 9 5 12 2 2 -3 -1 -11 -7 -17z"/>
<path d="M4820 3399 c0 -5 5 -7 10 -4 6 3 10 8 10 11 0 2 -4 4 -10 4 -5 0 -10
-5 -10 -11z"/>
<path d="M4938 3403 c7 -3 16 -2 19 1 4 3 -2 6 -13 5 -11 0 -14 -3 -6 -6z"/>
<path d="M4637 3363 c-12 -11 -7 -24 6 -17 6 4 9 3 4 -1 -13 -15 -46 -13 -40
2 3 7 0 13 -6 13 -14 0 -14 -1 0 -55 l11 -43 34 20 c19 11 42 34 50 50 18 34
12 48 -10 25 -8 -8 -12 -17 -9 -21 9 -8 -18 -37 -28 -30 -5 3 -7 10 -3 15 3 5
10 7 15 4 13 -9 11 7 -5 27 -7 10 -16 15 -19 11z m-1 -70 c-7 -7 -26 7 -26 19
0 6 6 6 15 -2 9 -7 13 -15 11 -17z"/>
<path d="M4766 3325 c4 -8 11 -15 16 -15 6 0 5 6 -2 15 -7 8 -14 15 -16 15 -2
0 -1 -7 2 -15z"/>
<path d="M4937 3326 c-4 -10 -1 -13 8 -9 8 3 12 9 9 14 -7 12 -11 11 -17 -5z"/>
<path d="M5528 3293 c7 -3 16 -2 19 1 4 3 -2 6 -13 5 -11 0 -14 -3 -6 -6z"/>
<path d="M4192 3265 c0 -16 2 -22 5 -12 2 9 2 23 0 30 -3 6 -5 -1 -5 -18z"/>
<path d="M5256 3277 c3 -10 9 -15 12 -12 3 3 0 11 -7 18 -10 9 -11 8 -5 -6z"/>
<path d="M4654 3265 c-4 -8 -10 -13 -14 -10 -5 3 -12 0 -16 -6 -4 -7 -3 -9 4
-5 6 4 12 -3 14 -16 2 -19 5 -16 15 15 11 36 8 53 -3 22z"/>
<path d="M4221 3254 c0 -11 3 -14 6 -6 3 7 2 16 -1 19 -3 4 -6 -2 -5 -13z"/>
<path d="M4751 3263 c-1 -6 -4 -20 -7 -30 -5 -17 -5 -17 6 0 6 10 9 23 6 30
-3 9 -5 9 -5 0z"/>
<path d="M4771 3244 c0 -11 3 -14 6 -6 3 7 2 16 -1 19 -3 4 -6 -2 -5 -13z"/>
<path d="M4960 3255 c0 -10 29 -24 34 -17 3 6 -3 12 -14 15 -11 3 -20 4 -20 2z"/>
<path d="M4891 3210 c-13 -11 -19 -20 -14 -20 6 0 18 9 28 20 23 25 17 25 -14
0z"/>
<path d="M4750 3195 c-6 -8 -10 -19 -8 -26 2 -6 9 0 16 15 13 29 10 33 -8 11z"/>
<path d="M4686 3145 c-21 -39 -22 -45 -8 -43 9 2 16 -2 15 -8 -1 -7 6 -19 16
-28 16 -15 18 -15 16 3 0 10 -9 26 -18 35 -21 21 -21 20 -2 56 25 47 9 35 -19
-15z"/>
<path d="M5135 3180 c-3 -5 -1 -10 4 -10 6 0 11 5 11 10 0 6 -2 10 -4 10 -3 0
-8 -4 -11 -10z"/>
<path d="M5060 3165 c-13 -16 0 -21 16 -6 5 5 18 11 29 14 16 4 14 5 -6 6 -15
0 -32 -6 -39 -14z"/>
<path d="M4888 3152 c-10 -2 -18 -8 -18 -14 0 -5 7 -7 16 -4 14 5 15 4 4 -9
-11 -13 -10 -14 4 -9 9 3 16 11 16 16 0 6 7 8 15 4 8 -3 15 -2 15 3 0 11 -29
18 -52 13z"/>
<path d="M4273 3143 c9 -2 23 -2 30 0 6 3 -1 5 -18 5 -16 0 -22 -2 -12 -5z"/>
<path d="M4590 3109 c-14 -11 -19 -18 -12 -14 6 3 12 1 12 -6 0 -15 -57 -70
-147 -142 -39 -31 -75 -61 -78 -67 -4 -6 -10 -8 -15 -5 -12 7 -71 -35 -64 -46
2 -4 -15 -20 -40 -34 -24 -14 -50 -33 -58 -42 -33 -41 232 150 308 223 7 6 25
21 41 35 30 25 97 119 85 119 -4 0 -18 -10 -32 -21z m-260 -259 c-33 -26 -49
-26 -19 0 13 10 29 19 34 19 6 1 -1 -8 -15 -19z"/>
<path d="M4748 3123 c7 -3 16 -2 19 1 4 3 -2 6 -13 5 -11 0 -14 -3 -6 -6z"/>
<path d="M4529 3103 c-13 -16 -12 -17 4 -4 16 13 21 21 13 21 -2 0 -10 -8 -17
-17z"/>
<path d="M5116 3095 c-9 -26 -7 -32 5 -12 6 10 9 21 6 23 -2 3 -7 -2 -11 -11z"/>
<path d="M4622 3093 c-10 -4 -10 -8 2 -17 14 -9 8 -20 -40 -73 -30 -35 -49
-61 -42 -58 7 3 33 30 58 61 44 55 48 56 95 39 12 -5 7 4 -15 23 -37 33 -38
33 -58 25z"/>
<path d="M5214 3086 c-3 -7 -1 -29 5 -47 10 -33 10 -33 8 13 -2 51 -4 57 -13
34z"/>
<path d="M5450 3096 c0 -2 8 -10 18 -17 15 -13 16 -12 3 4 -13 16 -21 21 -21
13z"/>
<path d="M5164 3068 l-19 -23 23 19 c12 11 22 21 22 23 0 8 -8 2 -26 -19z"/>
<path d="M5126 3065 c-9 -26 -7 -32 5 -12 6 10 9 21 6 23 -2 3 -7 -2 -11 -11z"/>
<path d="M4430 3060 c-8 -5 -10 -10 -5 -10 6 0 17 5 25 10 8 5 11 10 5 10 -5
0 -17 -5 -25 -10z"/>
<path d="M5515 3040 c21 -24 26 -25 19 -6 -3 8 -13 17 -22 21 -13 5 -13 2 3
-15z"/>
<path d="M4814 3034 c3 -8 2 -12 -4 -9 -13 8 -24 -21 -14 -37 5 -7 7 -22 5
-33 -3 -18 -1 -18 18 4 12 14 19 31 17 38 -3 7 -1 13 5 13 6 0 6 7 -1 20 -13
23 -35 27 -26 4z"/>
<path d="M4356 3031 c-4 -5 3 -7 14 -4 23 6 26 13 6 13 -8 0 -17 -4 -20 -9z"/>
<path d="M4664 3029 c-3 -6 -3 -13 0 -16 3 -4 6 -1 6 5 0 6 7 9 15 6 8 -4 15
-4 15 -1 0 11 -30 16 -36 6z"/>
<path d="M4750 3020 c8 -5 20 -10 25 -10 6 0 3 5 -5 10 -8 5 -19 10 -25 10 -5
0 -3 -5 5 -10z"/>
<path d="M4619 2984 c-13 -14 -37 -33 -52 -41 -16 -8 -26 -17 -23 -20 3 -4 -2
-15 -11 -25 -16 -18 -16 -18 0 -12 9 3 17 10 17 15 0 5 6 8 13 7 6 -2 11 2 10
9 -1 6 16 28 38 48 23 20 39 38 37 41 -3 2 -15 -8 -29 -22z"/>
<path d="M4900 2985 c13 -14 26 -25 28 -25 3 0 -5 11 -18 25 -13 14 -26 25
-28 25 -3 0 5 -11 18 -25z"/>
<path d="M5251 2994 c0 -11 3 -14 6 -6 3 7 2 16 -1 19 -3 4 -6 -2 -5 -13z"/>
<path d="M4629 2953 c-13 -16 -12 -17 4 -4 9 7 17 15 17 17 0 8 -8 3 -21 -13z"/>
<path d="M4165 2950 c-13 -5 -14 -9 -5 -9 8 0 24 4 35 9 13 5 14 9 5 9 -8 0
-24 -4 -35 -9z"/>
<path d="M4990 2946 c0 -2 7 -7 16 -10 8 -3 12 -2 9 4 -6 10 -25 14 -25 6z"/>
<path d="M5125 2941 c3 -6 -19 -18 -49 -27 -58 -18 -124 -10 -118 14 2 13 -24
16 -32 4 -8 -13 7 -30 37 -41 45 -17 106 -13 148 11 44 25 58 48 28 48 -11 0
-18 -4 -14 -9z"/>
<path d="M3995 2925 c-39 -17 -21 -18 25 0 19 7 28 14 20 14 -8 0 -28 -6 -45
-14z"/>
<path d="M4470 2877 c-75 -73 -166 -142 -280 -212 -52 -33 -117 -78 -145 -102
-27 -24 -51 -39 -53 -34 -5 14 52 122 84 162 28 34 28 34 2 11 -36 -33 -126
-205 -98 -187 15 10 12 -11 -4 -24 -40 -33 -72 -261 -48 -341 10 -32 10 -30 5
18 -4 35 -2 52 5 52 9 0 9 7 0 24 -13 30 4 161 28 212 25 52 110 128 214 190
112 67 235 162 305 233 65 67 55 65 -15 -2z"/>
<path d="M5748 2923 c7 -3 16 -2 19 1 4 3 -2 6 -13 5 -11 0 -14 -3 -6 -6z"/>
<path d="M3870 2869 c-95 -58 -191 -161 -235 -254 -20 -42 -35 -78 -32 -81 2
-3 21 28 41 68 76 152 101 177 276 286 19 12 31 21 25 21 -5 0 -39 -18 -75
-40z"/>
<path d="M4674 2893 c3 -6 3 -13 -1 -16 -5 -2 -2 -2 5 -1 6 2 32 -22 56 -53
l44 -56 -26 -24 c-15 -13 -20 -21 -12 -16 59 33 90 57 90 70 0 11 -6 8 -20 -8
l-20 -24 -22 30 c-27 36 -102 115 -94 98z"/>
<path d="M4574 2874 c-18 -14 -18 -14 6 -3 31 14 36 19 24 19 -6 0 -19 -7 -30
-16z"/>
<path d="M4899 2873 c-9 -11 -10 -14 -2 -9 9 5 12 -4 9 -34 -3 -34 -1 -38 11
-28 11 9 19 9 36 -2 20 -12 21 -12 8 3 -7 10 -23 17 -35 18 -19 1 -18 2 4 9
17 5 19 8 8 9 -16 1 -23 18 -19 44 2 12 -6 8 -20 -10z"/>
<path d="M5110 2880 c-9 -6 -10 -10 -3 -10 6 0 15 5 18 10 8 12 4 12 -15 0z"/>
<path d="M5541 2887 c-1 -9 28 -67 33 -67 2 0 6 9 9 19 3 13 0 18 -7 15 -7 -3
-18 5 -24 18 -6 13 -11 19 -11 15z"/>
<path d="M3938 2864 c-38 -20 -36 -28 2 -9 17 9 30 18 30 20 0 7 -1 6 -32 -11z"/>
<path d="M5432 2830 c0 -14 2 -19 5 -12 2 6 2 18 0 25 -3 6 -5 1 -5 -13z"/>
<path d="M4990 2830 c0 -5 5 -10 10 -10 6 0 10 5 10 10 0 6 -4 10 -10 10 -5 0
-10 -4 -10 -10z"/>
<path d="M5375 2830 c11 -5 27 -9 35 -9 9 0 8 4 -5 9 -11 5 -27 9 -35 9 -9 0
-8 -4 5 -9z"/>
<path d="M4973 2820 c2 -8 12 -16 23 -17 13 -2 15 -1 4 4 -8 3 -19 11 -23 17
-6 7 -7 6 -4 -4z"/>
<path d="M4493 2740 c0 -47 2 -66 4 -42 2 23 2 61 0 85 -2 23 -4 4 -4 -43z"/>
<path d="M5068 2803 c7 -3 16 -2 19 1 4 3 -2 6 -13 5 -11 0 -14 -3 -6 -6z"/>
<path d="M5231 2779 c-6 -18 -9 -34 -7 -36 2 -2 9 10 15 28 6 18 9 34 7 36 -2
2 -9 -10 -15 -28z"/>
<path d="M5620 2801 c0 -6 4 -13 10 -16 6 -3 7 1 4 9 -7 18 -14 21 -14 7z"/>
<path d="M4524 2705 c0 -55 1 -76 3 -47 2 29 2 74 0 100 -2 26 -3 2 -3 -53z"/>
<path d="M5530 2770 c8 -5 22 -9 30 -9 10 0 8 3 -5 9 -27 12 -43 12 -25 0z"/>
<path d="M3742 2733 c-24 -24 -24 -25 -2 -8 42 33 44 35 37 35 -4 0 -19 -12
-35 -27z"/>
<path d="M4079 2733 c-13 -16 -12 -17 4 -4 16 13 21 21 13 21 -2 0 -10 -8 -17
-17z"/>
<path d="M5341 2724 c0 -11 3 -14 6 -6 3 7 2 16 -1 19 -3 4 -6 -2 -5 -13z"/>
<path d="M4119 2703 c-13 -16 -12 -17 4 -4 16 13 21 21 13 21 -2 0 -10 -8 -17
-17z"/>
<path d="M5206 2652 l-60 -67 53 50 c43 41 81 87 69 84 -2 0 -30 -30 -62 -67z"/>
<path d="M5606 2683 c-10 -51 -19 -148 -13 -143 7 6 27 163 22 168 -2 2 -6 -9
-9 -25z"/>
<path d="M4666 2637 c-15 -35 -42 -87 -61 -116 -19 -29 -35 -64 -35 -79 0 -32
-10 -23 -20 20 l-8 33 -1 -30 c-1 -17 4 -36 10 -42 15 -15 -8 -47 -69 -98 -92
-78 -170 -160 -177 -187 -5 -19 0 -41 14 -71 22 -45 96 -136 85 -104 -3 9 -10
17 -14 17 -5 0 -22 23 -40 51 -35 57 -49 109 -31 109 7 0 10 4 7 9 -3 5 1 14
9 21 8 7 15 9 15 5 0 -4 6 -3 13 2 17 14 94 6 123 -14 13 -8 27 -13 30 -10 3
3 -6 13 -20 22 -29 19 -115 27 -133 12 -8 -6 -13 -6 -13 0 0 5 42 45 94 89 52
43 103 94 112 112 10 17 26 32 34 32 9 0 25 7 36 16 18 15 18 15 -3 5 -33 -16
-43 -13 -42 12 0 19 1 19 7 4 6 -15 10 -16 26 -4 16 12 16 14 2 26 -12 10 -13
18 -5 33 9 17 13 18 21 7 8 -11 9 -10 4 3 -3 10 8 44 23 75 30 60 45 103 38
103 -2 0 -16 -29 -31 -63z"/>
<path d="M4740 2679 c-15 -28 -42 -104 -34 -96 8 8 53 117 48 117 -2 0 -8 -9
-14 -21z"/>
<path d="M5165 2648 c-16 -25 -21 -37 -11 -29 16 14 51 71 43 71 -3 0 -17 -19
-32 -42z"/>
<path d="M5057 2667 c-4 -10 -7 -35 -6 -55 l1 -37 9 40 c11 45 8 82 -4 52z"/>
<path d="M5331 2664 c0 -11 3 -14 6 -6 3 7 2 16 -1 19 -3 4 -6 -2 -5 -13z"/>
<path d="M5916 2667 c3 -10 9 -15 12 -12 3 3 0 11 -7 18 -10 9 -11 8 -5 -6z"/>
<path d="M3952 2634 c-77 -65 -193 -237 -192 -283 1 -9 17 17 37 57 20 40 53
92 74 116 21 24 36 46 33 48 -3 3 19 26 48 52 29 25 50 46 47 46 -3 0 -24 -16
-47 -36z"/>
<path d="M5119 2643 c-13 -16 -12 -17 4 -4 9 7 17 15 17 17 0 8 -8 3 -21 -13z"/>
<path d="M5946 2600 c22 -33 26 -48 21 -82 -4 -27 -2 -37 4 -27 15 24 10 68
-13 109 -13 22 -26 40 -31 40 -4 0 5 -18 19 -40z"/>
<path d="M2723 2623 c15 -2 39 -2 55 0 15 2 2 4 -28 4 -30 0 -43 -2 -27 -4z"/>
<path d="M4483 2585 c0 -27 2 -38 4 -22 2 15 2 37 0 50 -2 12 -4 0 -4 -28z"/>
<path d="M5536 2578 c-7 -63 -8 -123 -1 -117 6 7 19 169 13 169 -3 0 -8 -24
-12 -52z"/>
<path d="M5467 2613 c-3 -5 -1 -17 4 -28 7 -17 8 -17 8 8 1 27 -4 34 -12 20z"/>
<path d="M5679 2602 c5 -9 19 -26 32 -37 19 -16 18 -13 -5 18 -30 39 -43 49
-27 19z"/>
<path d="M5096 2571 c-3 -5 -15 -7 -26 -4 -22 6 -39 -22 -24 -37 8 -8 64 32
64 45 0 8 -9 6 -14 -4z"/>
<path d="M4669 2524 c-12 -25 -19 -48 -16 -50 2 -2 14 18 25 46 26 63 18 66
-9 4z"/>
<path d="M4514 2511 c-1 -36 0 -38 4 -11 4 30 5 32 12 15 8 -18 9 -17 9 6 1
15 -5 29 -12 32 -8 3 -12 -9 -13 -42z"/>
<path d="M5285 2530 c-5 -8 62 -120 72 -120 5 0 -21 47 -46 84 -11 17 -18 33
-15 38 3 4 3 8 0 8 -3 0 -7 -4 -11 -10z"/>
<path d="M5462 2505 c0 -16 2 -22 5 -12 2 9 2 23 0 30 -3 6 -5 -1 -5 -18z"/>
<path d="M4472 2485 c0 -16 2 -22 5 -12 2 9 2 23 0 30 -3 6 -5 -1 -5 -18z"/>
<path d="M5580 2463 c0 -25 2 -44 4 -42 8 10 13 89 5 89 -5 0 -9 -21 -9 -47z"/>
<path d="M5246 2455 c-3 -9 -2 -13 3 -10 12 7 25 -31 16 -45 -3 -5 -17 -10
-31 -10 -13 0 -32 -10 -42 -21 -9 -12 -28 -33 -40 -48 -20 -22 -19 -20 2 10
32 44 32 47 1 41 -37 -7 -31 3 20 32 25 15 45 29 45 32 0 8 -43 -17 -108 -65
l-63 -45 7 -61 c4 -33 11 -71 15 -85 7 -18 8 -13 4 20 -4 41 -2 47 28 70 32
24 32 24 12 1 l-20 -24 35 6 c19 3 60 9 91 12 l57 7 7 -32 c5 -23 3 -35 -6
-41 -14 -8 -83 -24 -148 -33 -48 -7 -55 -18 -42 -59 8 -24 17 -34 29 -32 9 2
48 6 85 9 59 5 70 3 88 -15 11 -11 17 -24 14 -29 -11 -18 -81 -30 -206 -35
-142 -6 -163 -11 -155 -32 4 -10 2 -13 -6 -10 -9 3 -13 -9 -14 -43 l-2 -48 72
3 c144 4 173 6 146 14 -22 6 -25 13 -28 54 -3 49 0 52 48 49 8 0 34 3 57 7
l43 8 0 -50 0 -50 23 21 c13 12 32 22 43 21 14 0 12 -4 -11 -14 -17 -8 -23
-14 -13 -15 9 0 36 15 60 33 36 28 42 39 40 63 -2 16 -8 33 -13 38 -5 6 -10
19 -10 30 -1 15 -3 16 -6 5 -4 -16 -51 -44 -60 -35 -7 6 -6 104 2 115 3 6 1
11 -4 11 -6 0 -11 17 -11 38 -1 20 -7 81 -14 135 -13 98 -27 134 -40 102z m24
-320 c-19 -19 -38 -35 -43 -35 -5 0 8 18 29 40 21 22 40 37 43 35 2 -3 -11
-21 -29 -40z m-180 -155 c0 -5 -4 -10 -10 -10 -5 0 -10 5 -10 10 0 6 5 10 10
10 6 0 10 -4 10 -10z m-47 -97 c-7 -2 -21 -2 -30 0 -10 3 -4 5 12 5 17 0 24
-2 18 -5z"/>
<path d="M5942 2441 c-6 -17 -9 -31 -6 -31 7 0 25 52 20 57 -2 2 -8 -10 -14
-26z"/>
<path d="M4502 2420 c0 -14 2 -19 5 -12 2 6 2 18 0 25 -3 6 -5 1 -5 -13z"/>
<path d="M5734 2417 c42 -31 -25 -133 -143 -220 -31 -23 -60 -46 -66 -51 -26
-28 -66 -88 -62 -93 3 -2 10 5 17 16 13 26 30 19 23 -9 -3 -11 0 -20 6 -20 5
0 8 6 5 14 -3 8 9 25 28 41 18 15 26 24 18 19 -8 -4 -22 -13 -32 -21 -10 -9
-18 -11 -22 -4 -9 13 38 66 91 102 44 31 59 36 47 17 -4 -7 -3 -8 5 -4 6 4 9
11 6 15 -2 4 16 30 40 57 26 28 50 67 57 90 13 47 37 50 39 5 2 -24 2 -25 6
-3 4 22 8 23 49 18 27 -3 42 -1 39 4 -4 6 -21 10 -39 10 -19 0 -53 7 -76 15
-52 18 -59 19 -36 2z"/>
<path d="M5520 2371 c0 -58 -20 -118 -56 -169 l-26 -37 25 27 c17 18 27 23 31
15 3 -7 5 -6 4 3 -1 8 5 29 12 45 15 36 29 165 18 165 -4 0 -8 -22 -8 -49z"/>
<path d="M4461 2394 c0 -11 3 -14 6 -6 3 7 2 16 -1 19 -3 4 -6 -2 -5 -13z"/>
<path d="M5290 2401 c0 -6 4 -13 10 -16 6 -3 7 1 4 9 -7 18 -14 21 -14 7z"/>
<path d="M4911 2352 c-13 -26 -27 -55 -32 -64 -6 -12 -5 -18 1 -18 6 0 13 8
16 18 3 9 15 36 26 60 27 59 18 62 -11 4z"/>
<path d="M5450 2400 c-1 -3 -4 -16 -6 -30 -5 -30 -41 -85 -92 -143 -23 -27
-27 -33 -9 -17 l28 24 -4 -39 c-2 -22 -2 -30 0 -17 2 12 8 22 13 22 5 0 7 7 3
16 -3 8 0 26 7 39 12 23 14 23 27 7 13 -16 13 -15 8 6 -4 14 2 40 15 67 12 25
19 51 17 57 -3 7 -6 11 -7 8z"/>
<path d="M5415 2379 c-4 -6 -5 -12 -2 -15 2 -3 7 2 10 11 7 17 1 20 -8 4z"/>
<path d="M5326 2337 c3 -10 9 -15 12 -12 3 3 0 11 -7 18 -10 9 -11 8 -5 -6z"/>
<path d="M5387 2330 c-3 -11 -3 -20 -1 -20 2 0 8 9 14 20 6 11 7 20 2 20 -6 0
-12 -9 -15 -20z"/>
<path d="M4962 2255 c-28 -30 -65 -78 -83 -105 -35 -55 -51 -60 -25 -9 19 37
20 42 6 34 -5 -3 -3 10 5 29 17 41 19 56 6 56 -5 0 -15 -26 -21 -57 -7 -32
-16 -71 -21 -87 -11 -34 3 -69 16 -40 7 17 9 17 16 -6 8 -23 8 -23 5 5 -5 34
39 109 57 98 6 -3 7 -1 3 6 -5 7 4 27 19 47 21 27 30 33 36 23 7 -11 9 -9 9 5
0 11 7 28 17 38 9 10 14 18 11 18 -3 0 -29 -25 -56 -55z"/>
<path d="M5344 2282 c1 -33 10 -33 27 0 8 16 8 19 -1 13 -7 -4 -16 -2 -20 5
-4 6 -7 -1 -6 -18z"/>
<path d="M3760 2293 c0 -4 5 -15 10 -23 8 -13 10 -13 10 2 0 9 -4 20 -10 23
-5 3 -10 3 -10 -2z"/>
<path d="M4930 2278 c-29 -44 -32 -53 -6 -23 22 26 32 45 23 45 -1 0 -9 -10
-17 -22z"/>
<path d="M5547 2262 c1 -8 3 -19 3 -25 0 -7 4 -6 10 3 5 8 10 22 10 30 0 12
-2 13 -9 1 -5 -7 -11 -9 -13 -5 -3 5 -3 3 -1 -4z"/>
<path d="M3797 2218 c21 -38 164 -191 171 -183 3 2 0 10 -5 17 -6 7 -9 21 -8
31 2 9 -1 15 -6 11 -5 -3 -7 -10 -4 -15 4 -5 4 -9 0 -9 -10 0 -104 104 -127
142 -28 46 -46 51 -21 6z"/>
<path d="M5693 2225 c0 -8 4 -12 9 -9 5 3 6 10 3 15 -9 13 -12 11 -12 -6z"/>
<path d="M4880 2205 c-7 -9 -10 -18 -7 -21 3 -3 10 4 17 15 13 25 8 27 -10 6z"/>
<path d="M5535 2210 c-4 -6 -11 -8 -16 -5 -5 3 -6 -2 -2 -11 4 -10 2 -15 -3
-11 -5 3 -10 -3 -10 -14 0 -25 1 -25 25 16 11 19 18 35 16 35 -2 0 -7 -5 -10
-10z"/>
<path d="M5001 2174 c0 -11 3 -14 6 -6 3 7 2 16 -1 19 -3 4 -6 -2 -5 -13z"/>
<path d="M5388 2180 c-7 -19 5 -99 13 -85 4 6 4 30 0 55 -4 26 -9 39 -13 30z"/>
<path d="M5416 2175 c-9 -26 -7 -32 5 -12 6 10 9 21 6 23 -2 3 -7 -2 -11 -11z"/>
<path d="M1038 2153 c-27 -32 -31 -49 -4 -19 14 16 26 31 26 33 0 7 -8 2 -22
-14z"/>
<path d="M4912 2088 c-2 -61 0 -68 21 -78 18 -9 19 -8 5 2 -15 11 -15 13 0 25
16 12 16 13 0 7 -14 -5 -17 3 -21 53 l-3 58 -2 -67z"/>
<path d="M3960 2131 c0 -6 4 -13 10 -16 6 -3 7 1 4 9 -7 18 -14 21 -14 7z"/>
<path d="M4197 2109 c-4 -16 -3 -18 9 -8 16 13 19 29 5 29 -5 0 -11 -9 -14
-21z"/>
<path d="M4498 2113 c7 -3 16 -2 19 1 4 3 -2 6 -13 5 -11 0 -14 -3 -6 -6z"/>
<path d="M4597 2109 c7 -7 15 -10 18 -7 3 3 -2 9 -12 12 -14 6 -15 5 -6 -5z"/>
<path d="M5011 2103 c-1 -12 4 -25 9 -28 12 -7 12 2 0 30 -8 19 -9 19 -9 -2z"/>
<path d="M8655 2093 c42 -12 73 -42 67 -65 -4 -17 -2 -20 11 -15 9 3 18 1 21
-6 2 -7 5 -4 5 6 1 10 -10 29 -23 42 -13 13 -22 26 -20 28 2 2 -2 4 -8 5 -7 1
-26 3 -43 6 -16 3 -21 3 -10 -1z"/>
<path d="M8875 2083 c11 -3 26 -10 33 -15 8 -7 12 -7 12 0 0 12 -25 22 -48 21
-13 -1 -12 -3 3 -6z"/>
<path d="M4547 2064 c23 -17 30 -17 30 -1 0 6 -11 13 -24 13 -22 2 -23 1 -6
-12z"/>
<path d="M8508 2073 c7 -3 16 -2 19 1 4 3 -2 6 -13 5 -11 0 -14 -3 -6 -6z"/>
<path d="M4145 2049 c-22 -10 -33 -18 -25 -18 8 0 31 8 50 19 45 25 27 24 -25
-1z"/>
<path d="M4811 2058 c-1 -21 -12 -22 -60 -8 -19 5 -31 6 -27 2 13 -12 86 -30
86 -21 0 6 8 6 19 0 10 -6 22 -7 26 -3 4 4 18 -6 32 -23 l25 -30 -18 33 c-14
24 -25 32 -45 32 -18 0 -29 6 -32 18 -4 16 -5 16 -6 0z"/>
<path d="M4980 2060 c-8 -5 -10 -10 -5 -10 6 0 17 5 25 10 8 5 11 10 5 10 -5
0 -17 -5 -25 -10z"/>
<path d="M4647 2049 c7 -7 15 -10 18 -7 3 3 -2 9 -12 12 -14 6 -15 5 -6 -5z"/>
<path d="M4060 2025 c13 -14 26 -25 28 -25 3 0 -5 11 -18 25 -13 14 -26 25
-28 25 -3 0 5 -11 18 -25z"/>
<path d="M8211 2038 c0 -9 -4 -25 -7 -35 -5 -17 -5 -17 6 0 6 10 9 25 7 35 -4
15 -5 15 -6 0z"/>
<path d="M8170 2030 c-8 -5 -10 -10 -5 -10 6 0 17 5 25 10 8 5 11 10 5 10 -5
0 -17 -5 -25 -10z"/>
<path d="M4566 1968 c-8 -74 -13 -76 -63 -28 -13 11 -23 17 -23 12 0 -5 16
-22 35 -36 20 -15 33 -31 30 -35 -6 -11 -55 -11 -55 -1 0 4 -8 11 -17 14 -11
4 -6 -5 12 -22 17 -16 32 -25 33 -21 2 5 8 9 14 9 6 0 8 -6 5 -12 -2 -7 -1
-21 2 -31 8 -21 45 171 39 199 -2 11 -8 -11 -12 -48z"/>
<path d="M5477 2010 c-3 -11 -1 -20 4 -20 5 0 9 9 9 20 0 11 -2 20 -4 20 -2 0
-6 -9 -9 -20z"/>
<path d="M8560 2022 c0 -5 -24 -9 -54 -8 -31 1 -52 -3 -48 -8 3 -5 -2 -7 -10
-4 -8 4 -22 -2 -31 -13 -9 -10 -14 -19 -11 -19 4 0 1 -7 -7 -16 -12 -14 -14
-14 -27 3 -13 17 -14 16 -10 -9 4 -21 1 -28 -11 -29 -16 -1 34 -16 79 -23 14
-3 38 -9 53 -15 21 -8 26 -8 21 1 -5 7 -2 9 7 6 8 -3 33 7 54 23 37 28 38 30
17 36 -24 6 -31 43 -8 43 7 0 19 6 25 14 10 12 8 13 -10 9 -15 -4 -20 -3 -15
5 4 7 2 12 -3 12 -6 0 -11 -4 -11 -8z"/>
<path d="M4010 2004 c0 -7 71 -36 76 -31 2 2 -14 11 -36 20 -22 8 -40 13 -40
11z"/>
<path d="M8115 1989 c-4 -6 -5 -12 -2 -15 2 -3 7 2 10 11 7 17 1 20 -8 4z"/>
<path d="M8305 1980 c-10 -11 -16 -22 -13 -25 3 -3 13 6 22 20 20 30 16 32 -9
5z"/>
<path d="M5170 1981 c-46 -6 -50 -13 -35 -58 5 -14 45 -17 83 -7 17 5 22 14
22 40 0 21 -5 33 -12 32 -7 0 -33 -4 -58 -7z"/>
<path d="M8762 1965 c0 -16 2 -22 5 -12 2 9 2 23 0 30 -3 6 -5 -1 -5 -18z"/>
<path d="M8860 1959 c0 -11 4 -18 10 -14 5 3 7 12 3 20 -7 21 -13 19 -13 -6z"/>
<path d="M4158 1963 c7 -3 16 -2 19 1 4 3 -2 6 -13 5 -11 0 -14 -3 -6 -6z"/>
<path d="M4823 1963 c15 -2 39 -2 55 0 15 2 2 4 -28 4 -30 0 -43 -2 -27 -4z"/>
<path d="M10226 1962 c-3 -5 1 -9 9 -9 8 0 12 4 9 9 -3 4 -7 8 -9 8 -2 0 -6
-4 -9 -8z"/>
<path d="M8650 1925 c-7 -9 -11 -18 -8 -20 3 -3 11 1 18 10 7 9 11 18 8 20 -3
3 -11 -1 -18 -10z"/>
<path d="M9930 1936 c0 -2 7 -7 16 -10 8 -3 12 -2 9 4 -6 10 -25 14 -25 6z"/>
<path d="M10139 1923 c-12 -16 -12 -17 1 -7 8 6 22 14 30 17 13 5 12 6 -1 6
-9 1 -23 -7 -30 -16z"/>
<path d="M4454 1922 c4 -3 14 -7 22 -8 9 -1 13 0 10 4 -4 3 -14 7 -22 8 -9 1
-13 0 -10 -4z"/>
<path d="M9898 1923 c7 -3 16 -2 19 1 4 3 -2 6 -13 5 -11 0 -14 -3 -6 -6z"/>
<path d="M8236 1912 c-4 -7 8 -14 29 -18 33 -6 55 -1 43 11 -11 11 -66 16 -72
7z"/>
<path d="M9205 1900 c-3 -6 1 -7 9 -4 18 7 21 14 7 14 -6 0 -13 -4 -16 -10z"/>
<path d="M9920 1890 c-8 -5 -10 -10 -5 -10 6 0 17 5 25 10 8 5 11 10 5 10 -5
0 -17 -5 -25 -10z"/>
<path d="M4800 1849 c0 -19 1 -19 16 -5 10 10 24 14 40 10 14 -4 24 -2 24 5 0
6 -17 11 -40 11 -34 0 -40 -3 -40 -21z"/>
<path d="M8450 1861 c0 -7 -6 -11 -15 -8 -8 4 -17 2 -20 -3 -8 -14 106 -12
125 1 11 8 4 9 -29 4 -31 -4 -47 -2 -53 7 -6 10 -8 10 -8 -1z"/>
<path d="M8995 1860 c-3 -6 1 -7 9 -4 18 7 21 14 7 14 -6 0 -13 -4 -16 -10z"/>
<path d="M10248 1863 c7 -3 16 -2 19 1 4 3 -2 6 -13 5 -11 0 -14 -3 -6 -6z"/>
<path d="M4892 1818 c-5 -22 -16 -35 -33 -39 -23 -7 -23 -7 -1 -8 12 -1 22 -7
23 -13 1 -19 20 32 24 65 5 37 -3 34 -13 -5z"/>
<path d="M8630 1841 c0 -5 -12 -14 -27 -19 -17 -6 -21 -11 -11 -11 25 -1 68
17 68 29 0 5 -7 10 -15 10 -8 0 -15 -4 -15 -9z"/>
<path d="M8787 1822 c-24 -25 -25 -28 -7 -28 10 0 17 2 15 5 -3 2 2 13 12 23
27 30 9 30 -20 0z"/>
<path d="M9887 1839 c7 -7 15 -10 18 -7 3 3 -2 9 -12 12 -14 6 -15 5 -6 -5z"/>
<path d="M8736 1827 c-16 -12 -16 -14 -3 -14 9 0 18 6 21 14 3 7 4 13 3 13 -2
0 -11 -6 -21 -13z"/>
<path d="M9766 1825 c-3 -8 -1 -15 4 -15 6 0 10 7 10 15 0 8 -2 15 -4 15 -2 0
-6 -7 -10 -15z"/>
<path d="M10568 1833 c6 -2 18 -2 25 0 6 3 1 5 -13 5 -14 0 -19 -2 -12 -5z"/>
<path d="M4791 1785 c0 -22 5 -49 10 -60 7 -16 8 -13 5 12 -4 25 -2 31 9 26 8
-3 15 0 15 6 0 6 -5 11 -10 11 -6 0 -15 10 -20 23 -7 18 -9 16 -9 -18z"/>
<path d="M10145 1810 c-3 -6 1 -7 9 -4 18 7 21 14 7 14 -6 0 -13 -4 -16 -10z"/>
<path d="M8485 1799 c-16 -6 -49 -7 -72 -5 -25 3 -43 2 -43 -4 0 -10 14 -14
38 -11 8 1 25 -5 38 -14 19 -12 23 -19 14 -30 -16 -19 -63 -26 -56 -9 3 8 1
14 -4 14 -6 0 -10 -5 -10 -11 0 -8 -5 -7 -16 2 -14 11 -18 10 -30 -5 -7 -11
-11 -23 -8 -28 3 -5 -16 1 -42 14 -27 14 -56 24 -64 23 -8 0 -19 5 -25 11 -5
6 -23 14 -40 18 l-30 6 30 -25 c17 -14 34 -25 38 -25 5 0 6 -4 3 -9 -4 -5 4
-7 16 -4 19 4 20 3 8 -7 -12 -9 -8 -10 17 -5 27 5 32 4 27 -8 -9 -23 180 -15
281 13 44 12 90 24 103 27 12 3 25 9 28 14 3 5 12 9 20 9 8 0 12 -4 9 -10 -4
-6 1 -7 11 -3 34 13 -15 25 -69 17 -58 -9 -80 -7 -85 7 -2 6 -10 5 -18 -2 -12
-9 -13 -9 -9 4 10 23 -12 30 -45 13 -18 -8 -32 -11 -36 -5 -3 5 -2 9 3 8 4 -1
19 2 33 8 14 6 32 13 40 16 26 10 -22 6 -55 -4z"/>
<path d="M8110 1786 c7 -7 14 -6 21 1 9 9 7 12 -9 10 -14 -1 -18 -5 -12 -11z"/>
<path d="M8330 1790 c0 -6 7 -10 15 -10 8 0 15 2 15 4 0 2 -7 6 -15 10 -8 3
-15 1 -15 -4z"/>
<path d="M9403 1793 c9 -2 23 -2 30 0 6 3 -1 5 -18 5 -16 0 -22 -2 -12 -5z"/>
<path d="M9680 1790 c8 -5 20 -10 25 -10 6 0 3 5 -5 10 -8 5 -19 10 -25 10 -5
0 -3 -5 5 -10z"/>
<path d="M4531 1774 c0 -11 3 -14 6 -6 3 7 2 16 -1 19 -3 4 -6 -2 -5 -13z"/>
<path d="M5860 1762 c-14 -15 -32 -47 -40 -72 -8 -25 -17 -47 -20 -50 -10 -8
-35 -94 -32 -112 1 -10 -2 -18 -6 -18 -9 0 -34 16 -32 21 1 2 -2 12 -6 22 -3
9 -2 36 4 59 6 23 9 44 7 46 -2 2 -9 -14 -14 -36 -12 -42 -10 -89 3 -111 12
-19 3 -21 -38 -9 -44 14 -120 -2 -146 -30 -19 -21 -40 -76 -40 -107 0 -26 25
-52 35 -35 3 5 15 10 26 10 23 0 25 15 4 24 -30 11 -17 33 17 28 23 -3 35 0
45 14 10 14 16 15 25 6 7 -7 20 -12 30 -12 27 0 35 -30 13 -46 -17 -13 -16
-14 17 -14 20 0 43 -3 52 -6 9 -3 16 -2 16 4 0 5 -10 12 -22 16 -23 5 -23 6
-3 19 26 19 103 20 135 2 l25 -14 -26 -1 c-24 0 -63 -29 -43 -31 5 -1 -16 -7
-46 -14 l-55 -13 60 1 c33 0 70 -3 82 -7 13 -4 24 -2 28 5 5 7 14 1 27 -18
l19 -28 -6 26 c-6 24 -2 29 45 52 28 14 58 23 66 20 10 -4 14 3 14 28 0 18 -3
29 -6 26 -4 -3 -15 -2 -24 3 -14 8 -30 2 -71 -25 -28 -20 -54 -34 -56 -32 -2
2 1 15 6 29 13 34 116 88 109 57 -2 -6 17 -12 47 -13 28 -2 74 -6 103 -9 44
-5 61 -2 99 19 25 13 58 24 72 24 14 0 35 7 46 16 18 13 17 14 -13 8 -22 -4
-32 -3 -32 5 0 7 4 9 10 6 5 -3 20 1 32 11 22 16 21 16 -30 11 -38 -5 -51 -3
-46 5 5 7 2 9 -9 5 -9 -3 -19 -2 -23 4 -4 6 -11 6 -20 -2 -7 -6 -11 -16 -8
-21 4 -6 10 -5 15 3 6 9 9 10 9 2 0 -6 3 -18 6 -26 4 -10 -5 -16 -30 -21 -20
-4 -40 -14 -44 -23 -11 -18 -42 -11 -42 9 0 10 2 10 9 -1 6 -10 12 -5 24 18
l15 31 -31 0 c-30 -1 -31 -1 -13 -15 11 -8 15 -15 9 -15 -12 0 -39 30 -35 39
1 3 -12 8 -30 11 l-33 6 36 7 c26 5 39 14 42 29 8 27 -1 41 -20 34 -10 -4 -13
0 -11 11 5 27 27 27 37 0 14 -37 80 -42 113 -8 22 24 22 24 1 13 -13 -7 -24
-8 -28 -3 -6 11 -44 9 -65 -4 -13 -8 -13 -6 -1 8 12 15 11 17 -3 17 -21 0 -20
10 1 25 9 7 13 17 8 24 -6 10 -81 50 -105 56 -3 0 -21 6 -40 12 -43 14 -128
27 -155 24 -17 -2 -17 0 -5 8 13 10 13 11 0 11 -8 0 -26 -13 -40 -28z m99
-198 c17 -14 31 -21 31 -15 0 15 33 14 55 -3 19 -13 18 -15 -8 -49 -23 -31
-33 -35 -78 -39 -29 -1 -65 3 -82 9 -16 7 -41 13 -56 13 -24 1 -25 1 -6 12 11
6 22 14 25 17 3 3 19 14 35 23 17 9 31 26 33 37 4 27 14 26 51 -5z m121 6 c0
-12 -17 -12 -45 0 -17 7 -15 9 13 9 17 1 32 -3 32 -9z m260 -82 c0 -4 -7 -8
-15 -8 -8 0 -15 4 -15 8 0 5 7 9 15 9 8 0 15 -4 15 -9z m-170 -43 c0 -17 -2
-18 -25 -9 -13 5 -14 8 -3 15 19 13 28 11 28 -6z"/>
<path d="M9507 1784 c-3 -4 -21 -10 -39 -14 -29 -7 -30 -8 -7 -9 14 -1 34 6
45 14 10 8 16 15 13 15 -3 0 -8 -3 -12 -6z"/>
<path d="M9606 1769 c-23 -27 -15 -35 9 -9 10 11 16 22 14 25 -3 2 -13 -5 -23
-16z"/>
<path d="M7916 1769 c4 -7 -6 -10 -27 -9 -60 3 -89 0 -89 -10 0 -5 8 -7 18 -4
15 5 15 4 -2 -10 -10 -8 -24 -17 -30 -19 -30 -11 6 -12 64 -3 42 7 64 16 63
24 -2 6 4 12 12 12 20 0 19 16 -1 24 -9 3 -12 2 -8 -5z m-16 -29 c0 -5 -8 -10
-17 -10 -15 0 -16 2 -3 10 19 12 20 12 20 0z"/>
<path d="M9644 1769 c-3 -6 -1 -16 6 -22 10 -9 11 -9 5 2 -4 8 -2 17 6 22 9 6
10 9 2 9 -6 0 -15 -5 -19 -11z"/>
<path d="M9675 1760 c-3 -5 -1 -10 4 -10 6 0 11 5 11 10 0 6 -2 10 -4 10 -3 0
-8 -4 -11 -10z"/>
<path d="M9518 1753 c7 -3 16 -2 19 1 4 3 -2 6 -13 5 -11 0 -14 -3 -6 -6z"/>
<path d="M9844 1727 c1 -21 8 -43 14 -49 15 -15 15 -13 -3 42 l-14 45 3 -38z"/>
<path d="M4515 1705 c-3 -26 -4 -49 -2 -51 3 -3 8 16 12 41 3 26 4 49 2 51 -3
3 -8 -16 -12 -41z"/>
<path d="M5400 1717 c-17 -25 -31 -57 -26 -57 6 0 47 72 44 76 -2 2 -10 -7
-18 -19z"/>
<path d="M7930 1730 c0 -5 5 -10 11 -10 5 0 7 5 4 10 -3 6 -8 10 -11 10 -2 0
-4 -4 -4 -10z"/>
<path d="M8312 1733 c-6 -2 -10 -9 -6 -14 8 -14 21 -11 28 6 6 15 1 17 -22 8z"/>
<path d="M9535 1720 c-3 -5 -12 -7 -20 -3 -8 3 -15 3 -15 0 0 -13 30 -14 40
-1 7 8 10 14 7 14 -3 0 -8 -4 -12 -10z"/>
<path d="M7145 1710 c3 -5 8 -10 11 -10 2 0 4 5 4 10 0 6 -5 10 -11 10 -5 0
-7 -4 -4 -10z"/>
<path d="M7650 1709 c0 -5 5 -7 10 -4 6 3 10 8 10 11 0 2 -4 4 -10 4 -5 0 -10
-5 -10 -11z"/>
<path d="M9730 1699 c-7 -12 -18 -18 -26 -15 -8 3 -14 1 -14 -4 0 -24 52 1 58
28 3 19 -6 14 -18 -9z"/>
<path d="M10476 1713 c-3 -3 -6 -11 -6 -17 0 -6 4 -5 9 2 6 11 11 10 25 -3 9
-9 16 -12 16 -6 0 13 -35 32 -44 24z"/>
<path d="M4852 1690 c0 -14 2 -19 5 -12 2 6 2 18 0 25 -3 6 -5 1 -5 -13z"/>
<path d="M7719 1694 c-9 -8 -42 -18 -75 -21 -32 -3 -70 -14 -84 -23 -41 -28
-92 -42 -101 -28 -6 9 -12 8 -25 -3 -18 -15 -52 -14 -68 2 -13 12 -26 11 -26
-1 0 -5 7 -10 15 -10 8 0 15 -4 15 -9 0 -16 51 -19 65 -4 8 8 19 12 25 8 10
-6 147 31 165 45 6 4 18 7 27 7 23 0 100 24 113 36 6 6 1 7 -14 2 -16 -5 -21
-4 -17 4 10 16 3 14 -15 -5z"/>
<path d="M10608 1703 c7 -3 16 -2 19 1 4 3 -2 6 -13 5 -11 0 -14 -3 -6 -6z"/>
<path d="M4792 1680 c0 -14 2 -19 5 -12 2 6 2 18 0 25 -3 6 -5 1 -5 -13z"/>
<path d="M8168 1693 c7 -3 16 -2 19 1 4 3 -2 6 -13 5 -11 0 -14 -3 -6 -6z"/>
<path d="M8596 1681 c-3 -4 6 -6 19 -3 14 2 25 6 25 8 0 8 -39 4 -44 -5z"/>
<path d="M5123 1673 c9 -2 23 -2 30 0 6 3 -1 5 -18 5 -16 0 -22 -2 -12 -5z"/>
<path d="M6678 1673 c7 -3 16 -2 19 1 4 3 -2 6 -13 5 -11 0 -14 -3 -6 -6z"/>
<path d="M7430 1665 c-37 -11 -48 -22 -16 -16 5 1 6 -5 2 -14 -3 -9 -2 -13 4
-10 6 3 10 13 10 21 0 8 8 14 18 14 14 0 15 -2 2 -10 -9 -6 -10 -10 -3 -10 7
0 16 7 21 16 7 13 13 14 29 6 10 -6 25 -7 32 -3 10 6 9 10 -4 15 -22 8 -42 6
-95 -9z"/>
<path d="M9029 1663 c-13 -16 -12 -17 4 -4 16 13 21 21 13 21 -2 0 -10 -8 -17
-17z"/>
<path d="M10234 1671 c3 -5 15 -7 26 -4 28 7 25 13 -6 13 -14 0 -23 -4 -20 -9z"/>
<path d="M10336 1665 c-9 -26 -7 -32 5 -12 6 10 9 21 6 23 -2 3 -7 -2 -11 -11z"/>
<path d="M10706 1655 c-11 -8 -17 -17 -14 -20 2 -3 13 4 23 15 21 23 18 25 -9
5z"/>
<path d="M5228 1653 c7 -3 16 -2 19 1 4 3 -2 6 -13 5 -11 0 -14 -3 -6 -6z"/>
<path d="M7841 1644 c0 -11 3 -14 6 -6 3 7 2 16 -1 19 -3 4 -6 -2 -5 -13z"/>
<path d="M8398 1653 c7 -3 16 -2 19 1 4 3 -2 6 -13 5 -11 0 -14 -3 -6 -6z"/>
<path d="M8640 1650 c0 -5 5 -10 11 -10 5 0 7 5 4 10 -3 6 -8 10 -11 10 -2 0
-4 -4 -4 -10z"/>
<path d="M8725 1650 c3 -5 8 -10 11 -10 2 0 4 5 4 10 0 6 -5 10 -11 10 -5 0
-7 -4 -4 -10z"/>
<path d="M9050 1645 c-10 -12 -9 -16 4 -21 9 -4 20 -4 23 0 4 3 -2 6 -13 6
-19 1 -19 1 0 15 11 8 15 15 9 15 -6 0 -16 -7 -23 -15z"/>
<path d="M9730 1652 c0 -7 -14 -18 -32 -25 -21 -9 -28 -16 -20 -21 7 -4 12 -2
12 3 0 6 9 11 19 11 18 0 37 27 26 38 -3 3 -5 0 -5 -6z"/>
<path d="M4778 1591 c-2 -51 0 -63 19 -81 15 -15 23 -17 26 -8 3 8 6 6 6 -4 1
-10 4 -18 9 -18 10 0 14 58 6 110 -6 39 -8 42 -14 20 -4 -14 -11 -24 -17 -23
-6 1 -8 -9 -5 -22 2 -14 0 -25 -6 -25 -5 0 -9 23 -7 55 1 30 -1 55 -5 55 -5 0
-10 -27 -12 -59z"/>
<path d="M5268 1643 c6 -2 18 -2 25 0 6 3 1 5 -13 5 -14 0 -19 -2 -12 -5z"/>
<path d="M6226 1633 c-6 -14 -5 -15 5 -6 7 7 10 15 7 18 -3 3 -9 -2 -12 -12z"/>
<path d="M6402 1643 c14 -3 16 -8 8 -24 -9 -15 -8 -17 5 -13 9 4 13 9 11 12
-3 3 -2 10 4 16 6 8 1 12 -18 13 -15 0 -19 -1 -10 -4z"/>
<path d="M8090 1646 c0 -2 7 -7 16 -10 8 -3 12 -2 9 4 -6 10 -25 14 -25 6z"/>
<path d="M10313 1636 c4 -9 -8 -19 -36 -30 -22 -9 -38 -18 -35 -22 3 -3 24 4
47 15 28 15 39 26 35 36 -4 8 -8 15 -11 15 -3 0 -3 -6 0 -14z"/>
<path d="M4502 1615 c0 -16 2 -22 5 -12 2 9 2 23 0 30 -3 6 -5 -1 -5 -18z"/>
<path d="M6615 1630 c-3 -6 1 -7 9 -4 18 7 21 14 7 14 -6 0 -13 -4 -16 -10z"/>
<path d="M8600 1633 c0 -5 7 -17 15 -27 8 -10 13 -22 11 -25 -1 -3 5 -14 16
-23 24 -23 23 -19 -8 36 -24 44 -34 55 -34 39z"/>
<path d="M8998 1633 c6 -2 18 -2 25 0 6 3 1 5 -13 5 -14 0 -19 -2 -12 -5z"/>
<path d="M9190 1630 c0 -5 5 -10 11 -10 5 0 7 5 4 10 -3 6 -8 10 -11 10 -2 0
-4 -4 -4 -10z"/>
<path d="M9645 1630 c-3 -5 -1 -10 4 -10 6 0 11 5 11 10 0 6 -2 10 -4 10 -3 0
-8 -4 -11 -10z"/>
<path d="M7870 1612 c-13 -14 -12 -15 3 -9 10 4 17 2 17 -5 0 -6 3 -9 6 -5 3
3 2 12 -3 20 -7 13 -10 13 -23 -1z"/>
<path d="M8260 1620 c-9 -6 -10 -10 -3 -10 6 0 15 5 18 10 8 12 4 12 -15 0z"/>
<path d="M9116 1615 c4 -8 8 -15 10 -15 2 0 4 7 4 15 0 8 -4 15 -10 15 -5 0
-7 -7 -4 -15z"/>
<path d="M6440 1616 c0 -2 7 -9 15 -16 13 -11 14 -10 9 4 -5 14 -24 23 -24 12z"/>
<path d="M9020 1616 c0 -2 7 -7 16 -10 8 -3 12 -2 9 4 -6 10 -25 14 -25 6z"/>
<path d="M9270 1615 c0 -5 9 -23 20 -40 26 -39 26 -25 0 17 -11 18 -20 29 -20
23z"/>
<path d="M9530 1604 c-31 -13 -32 -13 -5 -7 17 3 43 6 58 5 15 -1 25 3 22 8
-8 13 -33 11 -75 -6z"/>
<path d="M6350 1599 c0 -5 5 -7 10 -4 6 3 10 8 10 11 0 2 -4 4 -10 4 -5 0 -10
-5 -10 -11z"/>
<path d="M6685 1601 c-3 -5 -36 -13 -73 -17 -82 -8 -126 -22 -67 -21 22 1 49
-3 59 -8 14 -6 17 -5 12 3 -12 19 40 26 66 8 12 -9 27 -16 33 -16 5 0 3 5 -5
11 -12 9 -11 10 7 6 13 -3 24 1 27 9 4 10 -3 14 -25 14 -18 0 -28 4 -24 10 3
6 4 10 1 10 -3 0 -7 -4 -11 -9z"/>
<path d="M7036 1594 c-22 -21 -20 -27 4 -12 11 7 20 16 20 20 0 12 -7 10 -24
-8z"/>
<path d="M8264 1594 c-18 -14 -18 -15 4 -4 12 6 22 13 22 15 0 8 -5 6 -26 -11z"/>
<path d="M8305 1600 c-3 -6 1 -7 9 -4 18 7 21 14 7 14 -6 0 -13 -4 -16 -10z"/>
<path d="M5431 1596 c2 -2 27 -6 54 -9 34 -4 42 -3 25 3 -25 8 -87 13 -79 6z"/>
<path d="M6500 1596 c0 -2 7 -6 15 -10 8 -3 15 -1 15 4 0 6 -7 10 -15 10 -8 0
-15 -2 -15 -4z"/>
<path d="M6797 1589 c7 -7 15 -10 18 -7 3 3 -2 9 -12 12 -14 6 -15 5 -6 -5z"/>
<path d="M6868 1593 c7 -3 16 -2 19 1 4 3 -2 6 -13 5 -11 0 -14 -3 -6 -6z"/>
<path d="M8550 1579 c-22 -18 -22 -19 -3 -10 12 6 25 16 28 21 9 15 3 12 -25
-11z"/>
<path d="M8903 1593 c-22 -8 -14 -19 15 -20 23 -1 24 0 7 6 l-20 8 20 5 c11 3
13 6 5 6 -8 0 -21 -2 -27 -5z"/>
<path d="M10312 1593 c-7 -3 -17 -16 -23 -29 -5 -14 -19 -29 -31 -34 -19 -7
-20 -9 -5 -9 21 -1 47 21 47 40 0 6 8 18 18 25 18 14 16 16 -6 7z"/>
<path d="M6436 1573 c-6 -14 -5 -15 5 -6 7 7 10 15 7 18 -3 3 -9 -2 -12 -12z"/>
<path d="M8794 1582 c7 -12 -4 -16 -34 -13 -12 2 -13 0 -1 -7 15 -11 51 -4 51
9 0 4 -5 11 -12 15 -7 4 -8 3 -4 -4z"/>
<path d="M9060 1580 c-9 -6 -10 -10 -3 -10 6 0 15 5 18 10 8 12 4 12 -15 0z"/>
<path d="M9380 1580 c-9 -6 -10 -10 -3 -10 6 0 15 5 18 10 8 12 4 12 -15 0z"/>
<path d="M9463 1582 c-13 -2 -23 -7 -23 -12 0 -6 10 -6 23 -1 12 4 28 6 35 4
6 -3 12 -3 12 0 0 8 -24 13 -47 9z"/>
<path d="M4491 1564 c0 -11 3 -14 6 -6 3 7 2 16 -1 19 -3 4 -6 -2 -5 -13z"/>
<path d="M5569 1565 c18 -8 43 -15 55 -14 12 0 1 7 -24 15 -58 18 -74 17 -31
-1z"/>
<path d="M6478 1573 c7 -3 16 -2 19 1 4 3 -2 6 -13 5 -11 0 -14 -3 -6 -6z"/>
<path d="M9531 1561 c-7 -12 -7 -22 -2 -26 5 -3 13 4 16 16 9 28 -1 36 -14 10z"/>
<path d="M7585 1560 c3 -5 8 -10 11 -10 2 0 4 5 4 10 0 6 -5 10 -11 10 -5 0
-7 -4 -4 -10z"/>
<path d="M8183 1563 c9 -2 23 -2 30 0 6 3 -1 5 -18 5 -16 0 -22 -2 -12 -5z"/>
<path d="M8448 1563 c-28 -7 -21 -21 7 -15 14 2 22 8 19 13 -3 5 -6 8 -7 8 -1
-1 -10 -3 -19 -6z"/>
<path d="M8857 1559 c7 -7 15 -10 18 -7 3 3 -2 9 -12 12 -14 6 -15 5 -6 -5z"/>
<path d="M6454 1546 c-17 -13 -17 -18 -6 -36 7 -12 11 -25 8 -28 -3 -3 -6 0
-6 6 0 7 -5 12 -11 12 -21 0 -2 -24 24 -31 22 -6 27 -4 27 11 0 10 -7 21 -16
24 -8 3 -13 10 -10 15 4 5 0 12 -6 14 -8 4 -7 6 4 6 9 1 20 6 23 11 9 15 -8
12 -31 -4z"/>
<path d="M8360 1550 c13 -9 13 -11 0 -20 -13 -8 -12 -10 3 -10 10 0 17 8 17
20 0 12 -7 20 -17 20 -15 0 -16 -2 -3 -10z"/>
<path d="M8498 1553 c7 -3 16 -2 19 1 4 3 -2 6 -13 5 -11 0 -14 -3 -6 -6z"/>
<path d="M8675 1550 c3 -5 8 -10 11 -10 2 0 4 5 4 10 0 6 -5 10 -11 10 -5 0
-7 -4 -4 -10z"/>
<path d="M6405 1540 c3 -5 10 -10 16 -10 5 0 9 5 9 10 0 6 -7 10 -16 10 -8 0
-12 -4 -9 -10z"/>
<path d="M7034 1529 c-28 -18 -28 -19 -6 -19 13 0 21 4 17 9 -3 5 5 11 17 13
13 2 18 6 12 10 -5 4 -23 -2 -40 -13z"/>
<path d="M8110 1540 c-8 -5 -10 -10 -5 -10 6 0 17 5 25 10 8 5 11 10 5 10 -5
0 -17 -5 -25 -10z"/>
<path d="M8215 1540 c-13 -6 -15 -9 -5 -9 8 0 22 4 30 9 18 12 2 12 -25 0z"/>
<path d="M8801 1541 c-8 -5 -21 -7 -30 -4 -13 4 -13 3 -2 -5 11 -8 9 -11 -8
-17 -13 -4 -20 -9 -17 -12 3 -3 20 4 39 16 41 25 63 27 71 5 4 -9 9 -14 13
-11 9 10 -17 37 -36 37 -9 0 -22 -4 -30 -9z"/>
<path d="M8937 1529 c-8 -28 -3 -34 11 -16 6 7 7 19 3 26 -6 9 -10 6 -14 -10z"/>
<path d="M9340 1539 c0 -7 -8 -18 -17 -26 -12 -9 -13 -13 -4 -11 19 5 48 48
32 48 -6 0 -11 -5 -11 -11z"/>
<path d="M9380 1540 c8 -5 20 -10 25 -10 6 0 3 5 -5 10 -8 5 -19 10 -25 10 -5
0 -3 -5 5 -10z"/>
<path d="M10318 1543 c6 -2 18 -2 25 0 6 3 1 5 -13 5 -14 0 -19 -2 -12 -5z"/>
<path d="M10400 1532 c19 -10 37 -17 39 -15 9 6 -35 32 -54 33 -14 0 -10 -5
15 -18z"/>
<path d="M7857 1533 c-4 -3 -7 -11 -7 -17 0 -6 5 -5 12 2 6 6 9 14 7 17 -3 3
-9 2 -12 -2z"/>
<path d="M9800 1531 c0 -17 15 -19 28 -5 11 12 9 14 -8 14 -11 0 -20 -4 -20
-9z"/>
<path d="M4481 1514 c0 -11 3 -14 6 -6 3 7 2 16 -1 19 -3 4 -6 -2 -5 -13z"/>
<path d="M7288 1523 c7 -3 16 -2 19 1 4 3 -2 6 -13 5 -11 0 -14 -3 -6 -6z"/>
<path d="M8156 1522 c6 -4 10 -15 8 -25 -1 -11 0 -16 3 -13 4 3 13 0 22 -6 10
-8 9 -4 -3 10 -14 17 -16 22 -5 22 11 0 11 2 -1 10 -8 5 -19 10 -25 10 -6 0
-5 -3 1 -8z"/>
<path d="M9770 1520 c0 -5 5 -10 10 -10 6 0 10 5 10 10 0 6 -4 10 -10 10 -5 0
-10 -4 -10 -10z"/>
<path d="M6540 1510 c-13 -8 -12 -10 3 -10 9 0 17 5 17 10 0 12 -1 12 -20 0z"/>
<path d="M6873 1507 c-24 -6 -43 -15 -43 -20 0 -5 10 -6 23 -3 12 4 37 9 55
13 17 3 32 10 32 14 0 10 -10 10 -67 -4z"/>
<path d="M6955 1509 c-4 -6 -5 -12 -2 -15 2 -3 7 2 10 11 7 17 1 20 -8 4z"/>
<path d="M7762 1490 c-13 -16 -19 -30 -14 -30 5 0 15 11 22 25 7 13 20 26 29
28 14 4 14 5 0 6 -8 0 -25 -12 -37 -29z"/>
<path d="M8201 1504 c0 -11 3 -14 6 -6 3 7 2 16 -1 19 -3 4 -6 -2 -5 -13z"/>
<path d="M9208 1513 c6 -2 18 -2 25 0 6 3 1 5 -13 5 -14 0 -19 -2 -12 -5z"/>
<path d="M9720 1505 c-14 -8 -19 -14 -10 -14 8 0 24 6 34 14 25 19 9 19 -24 0z"/>
<path d="M7610 1500 c-8 -5 -10 -10 -5 -10 6 0 17 5 25 10 8 5 11 10 5 10 -5
0 -17 -5 -25 -10z"/>
<path d="M7680 1500 c0 -5 5 -10 11 -10 5 0 7 5 4 10 -3 6 -8 10 -11 10 -2 0
-4 -4 -4 -10z"/>
<path d="M7918 1503 c7 -3 16 -2 19 1 4 3 -2 6 -13 5 -11 0 -14 -3 -6 -6z"/>
<path d="M9120 1491 c0 -11 4 -22 9 -25 4 -3 6 6 3 19 -5 30 -12 33 -12 6z"/>
<path d="M9250 1506 c0 -2 7 -7 16 -10 8 -3 12 -2 9 4 -6 10 -25 14 -25 6z"/>
<path d="M7481 1474 c-19 -14 -41 -22 -48 -20 -13 5 -18 -6 -7 -17 7 -6 67 28
84 49 16 19 11 17 -29 -12z"/>
<path d="M8133 1486 c-4 -7 -15 -16 -23 -19 -12 -4 -12 -6 2 -6 10 -1 22 8 28
19 12 22 6 28 -7 6z"/>
<path d="M8775 1490 c5 -8 60 -8 68 0 3 3 -12 6 -34 6 -21 1 -37 -2 -34 -6z"/>
<path d="M8895 1474 c22 -20 51 -36 32 -17 -4 3 -2 12 4 20 9 9 8 13 0 13 -6
0 -11 -4 -11 -10 0 -5 -4 -10 -10 -10 -5 0 -7 6 -4 13 3 8 -4 13 -17 14 -19 2
-19 0 6 -23z"/>
<path d="M9745 1490 c-3 -5 -2 -10 4 -10 5 0 13 5 16 10 3 6 2 10 -4 10 -5 0
-13 -4 -16 -10z"/>
<path d="M9800 1491 c0 -5 -14 -11 -32 -15 -17 -3 -29 -9 -25 -12 3 -3 22 0
43 6 32 11 39 10 49 -3 11 -15 14 -15 31 -1 18 14 18 15 -4 9 -15 -4 -24 -1
-28 9 -6 17 -34 22 -34 7z"/>
<path d="M10210 1490 c-23 -7 -23 -8 -3 -9 12 -1 25 4 28 9 3 6 5 10 3 9 -2
-1 -14 -5 -28 -9z"/>
<path d="M7893 1475 c0 -8 4 -12 9 -9 5 3 6 10 3 15 -9 13 -12 11 -12 -6z"/>
<path d="M7975 1481 c-11 -5 -24 -6 -29 -3 -5 3 -6 0 -2 -6 4 -8 15 -8 36 0
17 5 30 12 30 14 0 6 -12 4 -35 -5z"/>
<path d="M8050 1480 c-18 -12 -2 -12 25 0 13 6 15 9 5 9 -8 0 -22 -4 -30 -9z"/>
<path d="M8633 1483 c9 -2 23 -2 30 0 6 3 -1 5 -18 5 -16 0 -22 -2 -12 -5z"/>
<path d="M9172 1472 c-23 -17 -23 -19 -5 -32 14 -11 15 -11 6 -1 -9 11 -7 18
10 32 28 24 19 24 -11 1z"/>
<path d="M4475 1470 c3 -5 8 -10 11 -10 2 0 4 5 4 10 0 6 -5 10 -11 10 -5 0
-7 -4 -4 -10z"/>
<path d="M4523 1468 c-17 -21 -26 -58 -14 -58 6 0 11 8 11 18 0 10 5 23 12 30
6 6 9 14 6 17 -3 3 -10 0 -15 -7z"/>
<path d="M4543 1453 c-17 -36 -17 -40 10 -38 17 1 21 7 19 26 -6 37 -16 41
-29 12z"/>
<path d="M6928 1473 c7 -3 16 -2 19 1 4 3 -2 6 -13 5 -11 0 -14 -3 -6 -6z"/>
<path d="M7418 1473 c7 -3 16 -2 19 1 4 3 -2 6 -13 5 -11 0 -14 -3 -6 -6z"/>
<path d="M7843 1465 c0 -8 4 -12 9 -9 5 3 6 10 3 15 -9 13 -12 11 -12 -6z"/>
<path d="M8945 1470 c-3 -6 1 -7 9 -4 18 7 21 14 7 14 -6 0 -13 -4 -16 -10z"/>
<path d="M9000 1470 l-25 -8 28 -1 c15 -1 27 4 27 9 0 6 -1 10 -2 9 -2 -1 -14
-5 -28 -9z"/>
<path d="M6842 1459 c2 -7 10 -15 17 -17 8 -3 12 1 9 9 -2 7 -10 15 -17 17 -8
3 -12 -1 -9 -9z"/>
<path d="M7805 1460 c-3 -5 -2 -10 4 -10 5 0 13 5 16 10 3 6 2 10 -4 10 -5 0
-13 -4 -16 -10z"/>
<path d="M7906 1455 c-11 -8 -15 -15 -9 -15 7 0 15 5 18 10 4 6 11 7 17 4 7
-4 8 -2 4 4 -9 14 -7 15 -30 -3z"/>
<path d="M4447 1431 c-8 -39 -6 -44 17 -35 11 4 13 10 7 18 -5 6 -11 20 -13
31 -3 15 -6 11 -11 -14z"/>
<path d="M7190 1456 c0 -2 7 -6 15 -10 8 -3 15 -1 15 4 0 6 -7 10 -15 10 -8 0
-15 -2 -15 -4z"/>
<path d="M8577 1449 c7 -7 15 -10 18 -7 3 3 -2 9 -12 12 -14 6 -15 5 -6 -5z"/>
<path d="M8940 1445 c-14 -8 -20 -14 -14 -15 5 0 19 7 30 15 24 18 16 19 -16
0z"/>
<path d="M8330 1430 c-6 -11 -8 -20 -6 -20 3 0 10 9 16 20 6 11 8 20 6 20 -3
0 -10 -9 -16 -20z"/>
<path d="M8660 1446 c0 -2 7 -6 15 -10 8 -3 15 -1 15 4 0 6 -7 10 -15 10 -8 0
-15 -2 -15 -4z"/>
<path d="M8870 1446 c0 -2 9 -6 20 -9 11 -3 18 -1 14 4 -5 9 -34 13 -34 5z"/>
<path d="M4810 1433 c-14 -3 -29 -9 -35 -15 -7 -8 -6 -9 3 -4 21 12 13 -15
-10 -34 l-23 -19 25 6 c19 4 22 3 14 -6 -6 -6 -23 -14 -39 -17 -15 -3 -35 -9
-44 -13 -9 -5 -23 -6 -31 -4 -13 4 -13 3 0 -6 8 -6 11 -11 6 -11 -5 0 -3 -7 4
-15 7 -8 18 -15 24 -15 6 0 3 7 -8 15 -17 13 -14 15 38 30 31 9 57 21 57 26 1
5 2 14 3 21 2 22 26 20 35 -4 8 -19 10 -15 10 25 1 26 0 46 -1 46 -2 -1 -14
-4 -28 -6z"/>
<path d="M7395 1430 c-3 -5 -1 -10 4 -10 6 0 11 5 11 10 0 6 -2 10 -4 10 -3 0
-8 -4 -11 -10z"/>
<path d="M10145 1430 c19 -8 73 -14 64 -6 -2 2 -22 6 -44 9 -28 5 -34 4 -20
-3z"/>
<path d="M6588 1423 c-10 -2 -18 -9 -18 -14 0 -6 8 -5 20 1 11 6 20 13 20 15
0 3 -1 4 -2 4 -2 -1 -11 -3 -20 -6z"/>
<path d="M6625 1420 c3 -5 10 -10 16 -10 5 0 9 5 9 10 0 6 -7 10 -16 10 -8 0
-12 -4 -9 -10z"/>
<path d="M6727 1423 c-10 -3 -16 -11 -14 -18 3 -7 0 -18 -6 -24 -6 -6 -7 -11
-1 -11 6 0 15 5 20 10 6 6 21 12 34 15 31 6 37 14 20 25 -16 10 -24 11 -53 3z"/>
<path d="M6835 1420 c-7 -12 2 -12 30 0 19 8 19 9 -2 9 -12 1 -25 -3 -28 -9z"/>
<path d="M7122 1410 c0 -14 2 -19 5 -12 2 6 2 18 0 25 -3 6 -5 1 -5 -13z"/>
<path d="M8525 1421 c-11 -18 15 -22 42 -6 26 15 16 14 -24 -2 -11 -4 -14 -3
-9 5 4 7 5 12 2 12 -3 0 -7 -4 -11 -9z"/>
<path d="M9066 1417 c3 -10 9 -15 12 -12 3 3 0 11 -7 18 -10 9 -11 8 -5 -6z"/>
<path d="M10000 1426 c0 -8 61 -12 66 -4 3 4 -11 8 -30 8 -20 0 -36 -2 -36 -4z"/>
<path d="M10460 1420 c-23 -7 -23 -8 -3 -9 12 -1 25 4 28 9 3 6 5 10 3 9 -2
-1 -14 -5 -28 -9z"/>
<path d="M7219 1403 c-12 -16 -12 -17 1 -7 8 6 22 14 30 17 13 5 12 6 -1 6 -9
1 -23 -7 -30 -16z"/>
<path d="M7815 1394 c-9 -14 -15 -27 -13 -30 2 -2 12 10 22 26 21 37 15 40 -9
4z"/>
<path d="M7859 1407 c5 -5 21 -7 37 -5 27 3 26 4 -8 9 -22 3 -34 1 -29 -4z"/>
<path d="M7959 1403 l-24 -14 25 7 c14 4 33 7 42 6 10 0 20 3 23 7 8 14 -40 9
-66 -6z"/>
<path d="M9960 1410 c0 -5 7 -7 15 -4 8 4 15 8 15 10 0 2 -7 4 -15 4 -8 0 -15
-4 -15 -10z"/>
<path d="M4588 1403 c7 -3 16 -2 19 1 4 3 -2 6 -13 5 -11 0 -14 -3 -6 -6z"/>
<path d="M4620 1400 c0 -5 7 -7 15 -4 8 4 15 8 15 10 0 2 -7 4 -15 4 -8 0 -15
-4 -15 -10z"/>
<path d="M4670 1400 c8 -5 22 -9 30 -9 10 0 8 3 -5 9 -27 12 -43 12 -25 0z"/>
<path d="M8893 1403 c9 -2 23 -2 30 0 6 3 -1 5 -18 5 -16 0 -22 -2 -12 -5z"/>
<path d="M4550 1390 c0 -6 -20 -8 -46 -5 -40 3 -44 2 -29 -9 14 -10 17 -22 13
-59 -4 -37 -2 -47 9 -47 8 0 11 5 8 11 -4 6 -4 30 -1 54 6 36 10 42 26 38 15
-4 18 -11 13 -34 -4 -22 -2 -29 10 -29 20 0 31 16 17 25 -5 3 -10 10 -10 15 0
12 37 0 51 -16 6 -8 19 -14 28 -13 11 0 10 3 -6 11 -13 6 -23 18 -23 26 0 9
-6 12 -16 8 -11 -4 -18 1 -21 14 -5 20 -23 28 -23 10z"/>
<path d="M5430 1376 c-5 -15 -10 -35 -9 -44 0 -9 7 1 15 22 8 22 12 41 9 44
-2 3 -9 -7 -15 -22z"/>
<path d="M6625 1390 c3 -5 8 -10 11 -10 2 0 4 5 4 10 0 6 -5 10 -11 10 -5 0
-7 -4 -4 -10z"/>
<path d="M6654 1377 c-8 -19 -7 -23 7 -24 18 -2 33 22 23 38 -9 15 -18 10 -30
-14z"/>
<path d="M6130 1379 c0 -5 5 -7 10 -4 6 3 10 8 10 11 0 2 -4 4 -10 4 -5 0 -10
-5 -10 -11z"/>
<path d="M8809 1373 c-13 -16 -12 -17 4 -4 16 13 21 21 13 21 -2 0 -10 -8 -17
-17z"/>
<path d="M8893 1378 c-19 -25 -24 -43 -6 -21 10 11 27 23 38 26 19 4 19 5 -1
6 -12 0 -26 -5 -31 -11z"/>
<path d="M9887 1382 c-14 -6 -12 -10 15 -19 28 -11 31 -11 15 1 -14 11 -15 15
-5 19 7 3 9 5 3 6 -5 0 -18 -4 -28 -7z"/>
<path d="M9960 1380 c0 -6 7 -10 15 -10 8 0 15 2 15 4 0 2 -7 6 -15 10 -8 3
-15 1 -15 -4z"/>
<path d="M10230 1380 c0 -5 5 -10 11 -10 5 0 7 5 4 10 -3 6 -8 10 -11 10 -2 0
-4 -4 -4 -10z"/>
<path d="M4438 1355 c-3 -14 -1 -28 3 -31 5 -3 9 9 9 25 0 38 -6 40 -12 6z"/>
<path d="M8396 1367 c3 -10 9 -15 12 -12 3 3 0 11 -7 18 -10 9 -11 8 -5 -6z"/>
<path d="M10275 1370 c3 -5 8 -10 11 -10 2 0 4 5 4 10 0 6 -5 10 -11 10 -5 0
-7 -4 -4 -10z"/>
<path d="M6521 1346 c-1 -22 3 -27 15 -22 9 3 27 9 41 12 l26 7 -24 13 c-28
15 -51 19 -29 4 13 -8 13 -10 -2 -10 -9 0 -19 6 -21 13 -3 6 -6 -1 -6 -17z"/>
<path d="M8760 1360 c0 -5 7 -7 15 -4 8 4 15 8 15 10 0 2 -7 4 -15 4 -8 0 -15
-4 -15 -10z"/>
<path d="M4940 1353 c0 -6 9 -21 21 -34 l20 -24 -17 30 c-24 39 -24 40 -24 28z"/>
<path d="M7777 1349 c7 -7 15 -10 18 -7 3 3 -2 9 -12 12 -14 6 -15 5 -6 -5z"/>
<path d="M8288 1353 c6 -2 18 -2 25 0 6 3 1 5 -13 5 -14 0 -19 -2 -12 -5z"/>
<path d="M8826 1344 c-11 -8 -16 -14 -10 -14 13 0 39 18 34 24 -3 2 -14 -2
-24 -10z"/>
<path d="M10205 1350 c11 -5 29 -8 40 -8 16 0 15 2 -5 8 -34 11 -60 11 -35 0z"/>
<path d="M5460 1336 c7 -7 13 -7 20 0 6 6 3 10 -10 10 -13 0 -16 -4 -10 -10z"/>
<path d="M8495 1340 c-3 -5 -1 -10 4 -10 6 0 11 5 11 10 0 6 -2 10 -4 10 -3 0
-8 -4 -11 -10z"/>
<path d="M8908 1328 c-13 -13 -20 -20 -15 -16 5 3 15 5 21 4 6 -2 7 -1 2 2 -5
3 2 11 15 18 13 7 19 13 12 14 -7 0 -22 -10 -35 -22z"/>
<path d="M9630 1340 c-8 -5 -10 -10 -5 -10 6 0 17 5 25 10 8 5 11 10 5 10 -5
0 -17 -5 -25 -10z"/>
<path d="M9945 1340 c3 -5 -3 -10 -12 -13 -11 -2 -2 -7 21 -12 39 -8 39 -8 15
-21 -16 -9 -19 -13 -8 -14 16 0 39 19 39 32 0 4 -12 8 -27 9 -24 0 -25 2 -9 8
19 7 19 8 -2 13 -12 4 -20 2 -17 -2z"/>
<path d="M4984 1319 c9 -14 13 -30 9 -35 -4 -5 -1 -3 7 4 12 10 11 15 -9 35
l-23 22 16 -26z"/>
<path d="M5570 1325 c-22 -12 -23 -14 -7 -20 10 -5 17 -18 17 -34 0 -36 10
-45 25 -24 11 15 14 14 33 -5 14 -14 22 -17 26 -9 3 9 5 9 5 0 1 -7 7 -10 14
-8 31 12 84 12 118 0 20 -8 40 -11 42 -8 3 3 22 7 43 10 25 3 34 1 30 -6 -4
-6 -2 -11 4 -11 7 0 10 6 7 14 -3 8 -1 17 6 20 7 2 1 4 -13 3 -15 -1 -24 3
-22 11 2 14 -14 16 -23 2 -3 -5 -15 -10 -26 -10 -10 0 -19 -4 -19 -8 0 -10
-76 8 -105 25 -16 9 -17 13 -6 27 12 14 10 16 -18 16 -17 0 -48 7 -68 15 -19
8 -36 15 -37 15 0 -1 -12 -7 -26 -15z"/>
<path d="M8448 1333 c7 -3 16 -2 19 1 4 3 -2 6 -13 5 -11 0 -14 -3 -6 -6z"/>
<path d="M10008 1333 c7 -3 16 -2 19 1 4 3 -2 6 -13 5 -11 0 -14 -3 -6 -6z"/>
<path d="M8250 1321 c0 -7 -4 -10 -8 -7 -5 3 -9 -2 -9 -10 0 -13 2 -13 16 0 8
9 12 19 8 22 -4 4 -7 2 -7 -5z"/>
<path d="M8306 1321 c-4 -5 3 -7 14 -4 23 6 26 13 6 13 -8 0 -17 -4 -20 -9z"/>
<path d="M8421 1314 c0 -11 3 -14 6 -6 3 7 2 16 -1 19 -3 4 -6 -2 -5 -13z"/>
<path d="M6460 1315 c0 -3 9 -14 20 -25 22 -22 26 -14 6 13 -13 16 -26 23 -26
12z"/>
<path d="M4435 1300 c-3 -5 -1 -10 4 -10 6 0 11 5 11 10 0 6 -2 10 -4 10 -3 0
-8 -4 -11 -10z"/>
<path d="M4585 1300 c-3 -5 3 -27 15 -49 20 -41 32 -47 100 -54 20 -2 8 -4
-27 -5 -34 -1 -64 -5 -67 -10 -4 -6 44 -8 104 -3 23 2 50 27 55 50 2 12 7 27
10 34 4 6 0 4 -8 -6 -13 -15 -16 -15 -27 -2 -7 8 -17 15 -23 15 -5 0 1 -9 14
-21 19 -17 21 -22 9 -29 -26 -17 -95 -12 -112 8 -31 35 -41 64 -27 73 10 6 10
9 2 9 -6 0 -15 -4 -18 -10z"/>
<path d="M4624 1289 c0 -10 4 -19 8 -19 4 0 8 6 8 14 0 8 -4 17 -8 20 -4 2 -8
-4 -8 -15z"/>
<path d="M5500 1299 c0 -5 5 -7 10 -4 6 3 10 8 10 11 0 2 -4 4 -10 4 -5 0 -10
-5 -10 -11z"/>
<path d="M7020 1300 c-8 -5 -10 -10 -5 -10 6 0 17 5 25 10 8 5 11 10 5 10 -5
0 -17 -5 -25 -10z"/>
<path d="M7698 1303 c6 -2 18 -2 25 0 6 3 1 5 -13 5 -14 0 -19 -2 -12 -5z"/>
<path d="M7988 1303 c6 -2 18 -2 25 0 6 3 1 5 -13 5 -14 0 -19 -2 -12 -5z"/>
<path d="M8710 1300 c8 -5 20 -10 25 -10 6 0 3 5 -5 10 -8 5 -19 10 -25 10 -5
0 -3 -5 5 -10z"/>
<path d="M9900 1300 c-8 -5 -12 -11 -9 -14 3 -3 14 1 25 9 21 16 8 20 -16 5z"/>
<path d="M10345 1300 c11 -5 27 -9 35 -9 9 0 8 4 -5 9 -11 5 -27 9 -35 9 -9 0
-8 -4 5 -9z"/>
<path d="M8771 1284 c0 -11 3 -14 6 -6 3 7 2 16 -1 19 -3 4 -6 -2 -5 -13z"/>
<path d="M8908 1293 c6 -2 18 -2 25 0 6 3 1 5 -13 5 -14 0 -19 -2 -12 -5z"/>
<path d="M10030 1293 c-14 -3 -29 -8 -34 -13 -5 -5 8 -5 29 0 20 4 39 11 42
14 7 6 4 6 -37 -1z"/>
<path d="M6188 1283 c-10 -2 -18 -9 -18 -13 0 -5 -27 -7 -60 -4 -39 3 -60 1
-60 -5 0 -7 30 -11 78 -11 70 -1 75 -2 58 -15 -25 -19 -22 -19 42 0 29 9 52
20 52 25 0 6 -8 5 -18 -1 -11 -7 -31 -9 -47 -5 -26 7 -27 8 -9 21 19 14 14 17
-18 8z"/>
<path d="M8072 1277 c-8 -9 -8 -17 0 -27 8 -12 9 -12 4 2 -5 18 5 23 69 31 20
3 15 4 -16 6 -27 0 -51 -4 -57 -12z"/>
<path d="M10268 1283 c7 -3 16 -2 19 1 4 3 -2 6 -13 5 -11 0 -14 -3 -6 -6z"/>
<path d="M7022 1266 c7 -8 15 -12 17 -11 5 6 -10 25 -20 25 -5 0 -4 -6 3 -14z"/>
<path d="M9858 1273 c7 -3 16 -2 19 1 4 3 -2 6 -13 5 -11 0 -14 -3 -6 -6z"/>
<path d="M10228 1273 c7 -3 16 -2 19 1 4 3 -2 6 -13 5 -11 0 -14 -3 -6 -6z"/>
<path d="M7202 1250 c0 -14 2 -19 5 -12 2 6 2 18 0 25 -3 6 -5 1 -5 -13z"/>
<path d="M8441 1254 c0 -11 3 -14 6 -6 3 7 2 16 -1 19 -3 4 -6 -2 -5 -13z"/>
<path d="M8730 1255 c-11 -13 -10 -14 4 -9 9 3 16 10 16 15 0 13 -6 11 -20 -6z"/>
<path d="M9154 1257 c3 -10 6 -24 6 -30 0 -8 3 -8 8 -2 4 6 18 16 32 23 l25
11 -29 -6 c-18 -4 -32 -1 -38 8 -8 11 -8 10 -4 -4z"/>
<path d="M9918 1263 c7 -3 16 -2 19 1 4 3 -2 6 -13 5 -11 0 -14 -3 -6 -6z"/>
<path d="M6618 1253 c7 -3 16 -2 19 1 4 3 -2 6 -13 5 -11 0 -14 -3 -6 -6z"/>
<path d="M7148 1244 c-16 -8 -28 -17 -28 -19 0 -10 16 -4 40 15 30 23 25 25
-12 4z"/>
<path d="M8255 1251 c-3 -6 -10 -9 -15 -6 -4 3 -19 1 -32 -5 -20 -8 -17 -9 15
-6 39 4 55 12 45 22 -3 3 -9 0 -13 -5z"/>
<path d="M9323 1248 c3 -9 1 -19 -6 -22 -7 -2 6 -4 28 -4 22 0 33 2 25 5 -8 3
-24 13 -34 22 -18 15 -19 15 -13 -1z"/>
<path d="M9415 1250 c-3 -6 1 -7 9 -4 18 7 21 14 7 14 -6 0 -13 -4 -16 -10z"/>
<path d="M4556 1225 c-16 -13 -50 -26 -75 -30 -25 -4 -39 -10 -31 -13 8 -3 21
-11 28 -19 22 -21 39 -15 51 17 5 17 15 30 21 30 13 0 45 29 39 35 -2 2 -17
-7 -33 -20z m-46 -45 c0 -5 -7 -10 -16 -10 -8 0 -12 5 -9 10 3 6 10 10 16 10
5 0 9 -4 9 -10z"/>
<path d="M7403 1243 c9 -2 25 -2 35 0 9 3 1 5 -18 5 -19 0 -27 -2 -17 -5z"/>
<path d="M8492 1230 c0 -14 2 -19 5 -12 2 6 2 18 0 25 -3 6 -5 1 -5 -13z"/>
<path d="M8950 1240 c-9 -6 -10 -10 -3 -10 6 0 15 5 18 10 8 12 4 12 -15 0z"/>
<path d="M9240 1240 c0 -5 5 -10 10 -10 6 0 10 5 10 10 0 6 -4 10 -10 10 -5 0
-10 -4 -10 -10z"/>
<path d="M9700 1235 c0 -8 4 -15 10 -15 5 0 7 7 4 15 -4 8 -8 15 -10 15 -2 0
-4 -7 -4 -15z"/>
<path d="M10128 1243 c6 -2 18 -2 25 0 6 3 1 5 -13 5 -14 0 -19 -2 -12 -5z"/>
<path d="M4508 1233 c-10 -2 -18 -9 -18 -14 0 -14 26 -11 40 6 13 15 9 16 -22
8z"/>
<path d="M6595 1231 c-3 -5 -2 -12 3 -15 5 -3 9 1 9 9 0 17 -3 19 -12 6z"/>
<path d="M7164 1225 c-18 -14 -18 -14 4 -8 12 3 22 9 22 14 0 12 -3 11 -26 -6z"/>
<path d="M7228 1233 c7 -3 16 -2 19 1 4 3 -2 6 -13 5 -11 0 -14 -3 -6 -6z"/>
<path d="M9000 1219 c7 -11 9 -28 5 -37 -4 -13 -3 -14 5 -6 12 12 3 64 -11 64
-6 0 -5 -9 1 -21z"/>
<path d="M9275 1230 c-3 -6 1 -7 9 -4 18 7 21 14 7 14 -6 0 -13 -4 -16 -10z"/>
<path d="M4820 1219 c0 -5 5 -7 10 -4 6 3 10 8 10 11 0 2 -4 4 -10 4 -5 0 -10
-5 -10 -11z"/>
<path d="M8741 1214 c0 -11 3 -14 6 -6 3 7 2 16 -1 19 -3 4 -6 -2 -5 -13z"/>
<path d="M8806 1217 c3 -10 9 -15 12 -12 3 3 0 11 -7 18 -10 9 -11 8 -5 -6z"/>
<path d="M9052 1215 c-11 -12 -10 -15 3 -15 8 0 15 7 15 15 0 18 -2 18 -18 0z"/>
<path d="M9080 1220 c0 -5 5 -10 11 -10 5 0 7 5 4 10 -3 6 -8 10 -11 10 -2 0
-4 -4 -4 -10z"/>
<path d="M9410 1218 c0 -4 14 -8 30 -8 17 0 30 2 30 4 0 2 -13 6 -30 8 -16 3
-30 1 -30 -4z"/>
<path d="M10180 1226 c0 -2 15 -6 34 -8 19 -2 32 0 30 4 -5 8 -64 12 -64 4z"/>
<path d="M1658 1213 c6 -2 18 -2 25 0 6 3 1 5 -13 5 -14 0 -19 -2 -12 -5z"/>
<path d="M5940 1216 c0 -2 9 -6 20 -9 11 -3 18 -1 14 4 -5 9 -34 13 -34 5z"/>
<path d="M7990 1209 c0 -5 5 -7 10 -4 6 3 10 8 10 11 0 2 -4 4 -10 4 -5 0 -10
-5 -10 -11z"/>
<path d="M5101 1205 c9 -8 79 -35 79 -30 0 2 -16 12 -36 20 -37 15 -51 19 -43
10z"/>
<path d="M6967 1190 c-40 -25 -47 -35 -12 -18 17 9 37 17 45 20 7 2 10 7 5 10
-6 3 -22 -2 -38 -12z"/>
<path d="M7340 1195 c0 -8 4 -15 10 -15 5 0 7 7 4 15 -4 8 -8 15 -10 15 -2 0
-4 -7 -4 -15z"/>
<path d="M8950 1206 c0 -2 9 -6 20 -9 11 -3 18 -1 14 4 -5 9 -34 13 -34 5z"/>
<path d="M9162 1194 c10 -10 20 -16 22 -13 3 3 -5 11 -17 18 -21 13 -21 12 -5
-5z"/>
<path d="M5427 1181 c-10 -12 -8 -13 11 -9 37 10 25 -5 -38 -46 -33 -21 -60
-40 -60 -43 0 -2 4 -1 10 2 5 3 18 1 27 -5 17 -10 17 -10 -1 -8 -10 2 -21 -2
-23 -9 -6 -17 33 -5 52 17 16 18 16 18 -4 13 -36 -9 -23 11 22 36 23 13 48 34
54 47 10 22 9 23 -14 22 -13 -2 -30 -9 -36 -17z"/>
<path d="M6830 1196 c0 -2 9 -6 20 -9 11 -3 18 -1 14 4 -5 9 -34 13 -34 5z"/>
<path d="M8088 1193 c7 -3 16 -2 19 1 4 3 -2 6 -13 5 -11 0 -14 -3 -6 -6z"/>
<path d="M4385 1179 c7 -11 35 -12 35 -1 0 4 -9 8 -20 9 -11 1 -18 -2 -15 -8z"/>
<path d="M7570 1170 c-9 -6 -10 -10 -3 -10 6 0 15 5 18 10 8 12 4 12 -15 0z"/>
<path d="M8397 1169 c7 -7 15 -10 18 -7 3 3 -2 9 -12 12 -14 6 -15 5 -6 -5z"/>
<path d="M4202 1158 c2 -6 15 -18 29 -26 l24 -14 -22 20 c-12 11 -19 22 -16
26 4 3 1 6 -6 6 -7 0 -11 -5 -9 -12z"/>
<path d="M5652 1154 c-7 -8 -22 -14 -32 -14 -11 0 -20 -4 -20 -9 0 -13 48 -1
61 15 16 19 8 26 -9 8z"/>
<path d="M5926 1154 c-3 -7 2 -10 15 -7 22 6 26 20 4 20 -8 0 -16 -6 -19 -13z"/>
<path d="M6720 1160 c-18 -12 -2 -12 25 0 13 6 15 9 5 9 -8 0 -22 -4 -30 -9z"/>
<path d="M6890 1159 c0 -5 5 -7 10 -4 6 3 10 8 10 11 0 2 -4 4 -10 4 -5 0 -10
-5 -10 -11z"/>
<path d="M2438 1153 c6 -2 18 -2 25 0 6 3 1 5 -13 5 -14 0 -19 -2 -12 -5z"/>
<path d="M4150 1150 c0 -5 5 -10 11 -10 5 0 7 5 4 10 -3 6 -8 10 -11 10 -2 0
-4 -4 -4 -10z"/>
<path d="M4575 1150 c-19 -8 -19 -9 2 -9 12 -1 25 4 28 9 7 12 -2 12 -30 0z"/>
<path d="M8188 1120 c-2 -22 0 -40 4 -40 5 0 8 18 8 40 0 22 -2 40 -4 40 -2 0
-6 -18 -8 -40z"/>
<path d="M2775 1140 c3 -5 11 -10 16 -10 6 0 7 5 4 10 -3 6 -11 10 -16 10 -6
0 -7 -4 -4 -10z"/>
<path d="M2830 1140 c-8 -5 -10 -10 -5 -10 6 0 17 5 25 10 8 5 11 10 5 10 -5
0 -17 -5 -25 -10z"/>
<path d="M3717 1143 c-4 -3 -7 -11 -7 -17 0 -6 5 -5 12 2 6 6 9 14 7 17 -3 3
-9 2 -12 -2z"/>
<path d="M4390 1137 c-14 -6 -29 -18 -34 -25 -7 -12 -10 -12 -16 -2 -6 9 -13
-1 -21 -29 -8 -27 -21 -46 -34 -51 -11 -4 -27 -15 -34 -24 -12 -14 -12 -19 -1
-29 10 -10 12 -9 7 5 -5 13 2 22 26 34 40 21 67 44 67 58 0 6 -7 2 -15 -8 -8
-11 -15 -15 -15 -10 0 14 49 58 85 77 34 19 23 21 -15 4z"/>
<path d="M7461 1134 c0 -11 3 -14 6 -6 3 7 2 16 -1 19 -3 4 -6 -2 -5 -13z"/>
<path d="M2200 1129 c0 -7 -11 -9 -26 -6 -16 3 -22 1 -16 -5 13 -13 54 -6 60
10 2 6 -1 12 -7 12 -6 0 -11 -5 -11 -11z"/>
<path d="M2275 1130 c-3 -5 -1 -10 4 -10 6 0 11 5 11 10 0 6 -2 10 -4 10 -3 0
-8 -4 -11 -10z"/>
<path d="M4194 1132 c4 -7 1 -12 -8 -12 -8 0 -17 -4 -20 -9 -3 -4 6 -6 19 -3
27 5 32 16 13 28 -7 4 -8 3 -4 -4z"/>
<path d="M8268 1133 c7 -3 16 -2 19 1 4 3 -2 6 -13 5 -11 0 -14 -3 -6 -6z"/>
<path d="M2635 1120 c-3 -5 -1 -10 4 -10 6 0 11 5 11 10 0 6 -2 10 -4 10 -3 0
-8 -4 -11 -10z"/>
<path d="M2719 1117 c5 -5 21 -7 37 -5 27 3 26 4 -8 9 -22 3 -34 1 -29 -4z"/>
<path d="M6098 1123 c7 -3 16 -2 19 1 4 3 -2 6 -13 5 -11 0 -14 -3 -6 -6z"/>
<path d="M6605 1117 c11 -9 34 -16 50 -16 l30 1 -30 8 c-16 4 -39 11 -50 15
l-20 8 20 -16z"/>
<path d="M7488 1123 c6 -2 18 -2 25 0 6 3 1 5 -13 5 -14 0 -19 -2 -12 -5z"/>
<path d="M2460 1110 c-12 -7 -10 -9 7 -7 12 0 19 5 17 9 -6 10 -6 10 -24 -2z"/>
<path d="M2596 1105 c-18 -13 -18 -14 3 -12 11 1 21 7 21 14 0 16 0 16 -24 -2z"/>
<path d="M7397 1113 c-10 -9 -9 -23 1 -23 5 0 9 7 9 15 0 17 -1 18 -10 8z"/>
<path d="M7931 1104 c0 -11 3 -14 6 -6 3 7 2 16 -1 19 -3 4 -6 -2 -5 -13z"/>
<path d="M1868 1103 c7 -3 16 -2 19 1 4 3 -2 6 -13 5 -11 0 -14 -3 -6 -6z"/>
<path d="M2542 1094 c-10 -11 -10 -14 0 -15 7 -1 0 -5 -17 -9 -28 -7 -28 -8
-5 -9 35 -1 54 13 44 32 -8 13 -11 13 -22 1z"/>
<path d="M2670 1100 l-35 -7 32 -2 c17 0 35 4 38 9 3 6 5 9 3 9 -2 -1 -19 -5
-38 -9z"/>
<path d="M4090 1100 c-8 -5 -10 -10 -5 -10 6 0 17 5 25 10 8 5 11 10 5 10 -5
0 -17 -5 -25 -10z"/>
<path d="M7567 1099 c7 -7 15 -10 18 -7 3 3 -2 9 -12 12 -14 6 -15 5 -6 -5z"/>
<path d="M9288 1103 c7 -3 16 -2 19 1 4 3 -2 6 -13 5 -11 0 -14 -3 -6 -6z"/>
<path d="M4028 1083 c7 -3 16 -2 19 1 4 3 -2 6 -13 5 -11 0 -14 -3 -6 -6z"/>
<path d="M4395 1078 c-23 -13 -44 -39 -44 -53 0 -5 10 2 22 16 12 14 31 31 42
37 11 6 16 11 10 11 -5 0 -19 -5 -30 -11z"/>
<path d="M5318 1072 c9 -10 19 -17 21 -16 6 5 -20 34 -30 34 -5 0 -1 -8 9 -18z"/>
<path d="M8422 1074 c-7 -8 -8 -14 -3 -14 10 0 25 19 20 25 -2 1 -10 -3 -17
-11z"/>
<path d="M9018 1083 c7 -3 16 -2 19 1 4 3 -2 6 -13 5 -11 0 -14 -3 -6 -6z"/>
<path d="M9063 1083 c9 -2 23 -2 30 0 6 3 -1 5 -18 5 -16 0 -22 -2 -12 -5z"/>
<path d="M3970 1071 c0 -13 27 -21 46 -14 12 5 13 7 3 14 -8 5 -17 3 -21 -4
-6 -9 -8 -9 -8 1 0 6 -4 12 -10 12 -5 0 -10 -4 -10 -9z"/>
<path d="M4735 1070 c13 -6 15 -9 5 -9 -13 -1 -13 -2 0 -11 12 -7 10 -11 -10
-19 -24 -9 -24 -10 -2 -10 20 -1 27 9 23 32 -1 4 11 5 26 2 l28 -5 -30 14
c-16 9 -37 15 -45 15 -10 0 -8 -3 5 -9z"/>
<path d="M5455 1070 c-3 -5 -1 -10 4 -10 6 0 11 5 11 10 0 6 -2 10 -4 10 -3 0
-8 -4 -11 -10z"/>
<path d="M7535 1070 c-16 -7 -17 -9 -3 -9 9 -1 20 4 23 9 7 11 7 11 -20 0z"/>
<path d="M2178 1063 c7 -3 16 -2 19 1 4 3 -2 6 -13 5 -11 0 -14 -3 -6 -6z"/>
<path d="M2330 1066 c0 -2 9 -6 20 -9 11 -3 18 -1 14 4 -5 9 -34 13 -34 5z"/>
<path d="M5845 1060 c-3 -6 1 -7 9 -4 18 7 21 14 7 14 -6 0 -13 -4 -16 -10z"/>
<path d="M7298 1063 c6 -2 18 -2 25 0 6 3 1 5 -13 5 -14 0 -19 -2 -12 -5z"/>
<path d="M7577 1063 c-10 -10 -8 -23 4 -23 5 0 8 4 4 9 -3 5 3 12 12 14 14 4
15 5 2 6 -9 0 -19 -2 -22 -6z"/>
<path d="M8964 1050 c0 -13 4 -16 10 -10 7 7 7 13 0 20 -6 6 -10 3 -10 -10z"/>
<path d="M2475 1050 c-3 -5 -1 -10 4 -10 6 0 11 5 11 10 0 6 -2 10 -4 10 -3 0
-8 -4 -11 -10z"/>
<path d="M5268 1053 c7 -3 16 -2 19 1 4 3 -2 6 -13 5 -11 0 -14 -3 -6 -6z"/>
<path d="M5416 1044 c-5 -14 -4 -15 9 -4 17 14 19 20 6 20 -5 0 -12 -7 -15
-16z"/>
<path d="M1950 1038 c0 -11 12 -10 30 2 12 7 10 9 -8 7 -12 0 -22 -5 -22 -9z"/>
<path d="M5125 1040 c-18 -8 -17 -9 8 -9 15 -1 27 4 27 9 0 12 -8 12 -35 0z"/>
<path d="M8760 1040 c8 -5 20 -10 25 -10 6 0 3 5 -5 10 -8 5 -19 10 -25 10 -5
0 -3 -5 5 -10z"/>
<path d="M4020 1031 c0 -5 7 -12 16 -15 24 -9 27 -7 10 9 -17 17 -26 19 -26 6z"/>
<path d="M4050 1036 c0 -2 7 -7 16 -10 8 -3 12 -2 9 4 -6 10 -25 14 -25 6z"/>
<path d="M4178 1033 c7 -3 16 -2 19 1 4 3 -2 6 -13 5 -11 0 -14 -3 -6 -6z"/>
<path d="M4770 1030 c-9 -6 -10 -10 -3 -10 6 0 15 5 18 10 8 12 4 12 -15 0z"/>
<path d="M6218 1033 c7 -3 16 -2 19 1 4 3 -2 6 -13 5 -11 0 -14 -3 -6 -6z"/>
<path d="M2390 1020 c0 -5 7 -7 15 -4 8 4 15 8 15 10 0 2 -7 4 -15 4 -8 0 -15
-4 -15 -10z"/>
<path d="M4138 1018 c5 -5 16 -8 23 -6 8 3 3 7 -10 11 -17 4 -21 3 -13 -5z"/>
<path d="M4993 1016 c-4 -8 -19 -16 -33 -19 -17 -3 -12 -5 16 -6 39 -1 94 17
94 32 0 13 -69 7 -77 -7z m27 -6 c0 -5 -5 -10 -11 -10 -5 0 -7 5 -4 10 3 6 8
10 11 10 2 0 4 -4 4 -10z"/>
<path d="M9095 1020 c3 -5 11 -10 16 -10 6 0 7 5 4 10 -3 6 -11 10 -16 10 -6
0 -7 -4 -4 -10z"/>
<path d="M2330 1011 c0 -6 -10 -16 -22 -21 -23 -9 -23 -9 -2 -9 20 -1 41 26
29 37 -3 3 -5 0 -5 -7z"/>
<path d="M2953 1006 c0 -7 17 -12 39 -12 45 -1 43 5 -5 15 -23 6 -34 5 -34 -3z"/>
<path d="M4375 1010 c-3 -5 -1 -10 4 -10 6 0 11 5 11 10 0 6 -2 10 -4 10 -3 0
-8 -4 -11 -10z"/>
<path d="M4892 1002 c-9 -9 -25 -16 -35 -14 -9 2 -17 -1 -17 -7 0 -6 8 -11 18
-12 9 0 41 -2 70 -5 30 -3 52 0 52 5 0 5 -8 10 -17 11 -47 2 -73 5 -73 9 0 2
8 10 18 17 9 7 14 14 10 14 -5 0 -16 -8 -26 -18z"/>
<path d="M6256 1005 c-3 -8 -1 -15 4 -15 6 0 10 7 10 15 0 8 -2 15 -4 15 -2 0
-6 -7 -10 -15z"/>
<path d="M6308 1004 c-16 -8 -28 -17 -28 -20 0 -2 12 2 28 9 15 8 34 17 42 20
13 5 13 5 0 6 -8 0 -27 -7 -42 -15z"/>
<path d="M1558 1003 c6 -2 18 -2 25 0 6 3 1 5 -13 5 -14 0 -19 -2 -12 -5z"/>
<path d="M2230 1000 c0 -5 5 -10 10 -10 6 0 10 5 10 10 0 6 -4 10 -10 10 -5 0
-10 -4 -10 -10z"/>
<path d="M8115 1000 c-3 -6 1 -7 9 -4 18 7 21 14 7 14 -6 0 -13 -4 -16 -10z"/>
<path d="M2430 988 c0 -5 12 -5 28 -2 39 10 41 15 4 12 -18 -1 -32 -6 -32 -10z"/>
<path d="M2810 996 c0 -9 40 -13 46 -5 3 5 -6 9 -20 9 -14 0 -26 -2 -26 -4z"/>
<path d="M4162 984 c10 -10 20 -16 22 -13 3 3 -5 11 -17 18 -21 13 -21 12 -5
-5z"/>
<path d="M5056 981 c10 -10 21 -14 23 -8 4 10 -17 27 -33 27 -5 0 -1 -8 10
-19z"/>
<path d="M5730 990 c0 -5 5 -10 11 -10 5 0 7 5 4 10 -3 6 -8 10 -11 10 -2 0
-4 -4 -4 -10z"/>
<path d="M6980 991 c0 -6 4 -13 10 -16 6 -3 7 1 4 9 -7 18 -14 21 -14 7z"/>
<path d="M7538 993 c7 -3 16 -2 19 1 4 3 -2 6 -13 5 -11 0 -14 -3 -6 -6z"/>
<path d="M1855 980 c-3 -5 -2 -10 4 -10 5 0 13 5 16 10 3 6 2 10 -4 10 -5 0
-13 -4 -16 -10z"/>
<path d="M5698 983 c7 -3 16 -2 19 1 4 3 -2 6 -13 5 -11 0 -14 -3 -6 -6z"/>
<path d="M7658 983 c7 -3 16 -2 19 1 4 3 -2 6 -13 5 -11 0 -14 -3 -6 -6z"/>
<path d="M9055 980 c3 -5 8 -10 11 -10 2 0 4 5 4 10 0 6 -5 10 -11 10 -5 0 -7
-4 -4 -10z"/>
<path d="M2360 970 c0 -5 4 -10 9 -10 6 0 13 5 16 10 3 6 -1 10 -9 10 -9 0
-16 -4 -16 -10z"/>
<path d="M2636 971 c-4 -5 3 -7 14 -4 23 6 26 13 6 13 -8 0 -17 -4 -20 -9z"/>
<path d="M2815 970 c-3 -5 -1 -10 4 -10 6 0 11 5 11 10 0 6 -2 10 -4 10 -3 0
-8 -4 -11 -10z"/>
<path d="M2860 970 c-9 -6 -10 -10 -3 -10 6 0 15 5 18 10 8 12 4 12 -15 0z"/>
<path d="M6255 970 c-3 -5 -1 -10 4 -10 6 0 11 5 11 10 0 6 -2 10 -4 10 -3 0
-8 -4 -11 -10z"/>
<path d="M8873 973 c9 -2 23 -2 30 0 6 3 -1 5 -18 5 -16 0 -22 -2 -12 -5z"/>
<path d="M1580 966 c0 -2 7 -7 16 -10 8 -3 12 -2 9 4 -6 10 -25 14 -25 6z"/>
<path d="M2310 960 c-8 -5 -10 -10 -5 -10 6 0 17 5 25 10 8 5 11 10 5 10 -5 0
-17 -5 -25 -10z"/>
<path d="M7010 961 c0 -4 11 -6 25 -3 14 2 25 6 25 8 0 2 -11 4 -25 4 -14 0
-25 -4 -25 -9z"/>
<path d="M1550 949 c0 -5 5 -7 10 -4 6 3 10 8 10 11 0 2 -4 4 -10 4 -5 0 -10
-5 -10 -11z"/>
<path d="M1858 953 c7 -3 16 -2 19 1 4 3 -2 6 -13 5 -11 0 -14 -3 -6 -6z"/>
<path d="M2185 950 c3 -5 14 -10 23 -10 15 0 15 2 2 10 -20 13 -33 13 -25 0z"/>
<path d="M2705 945 c-23 -11 -25 -14 -10 -14 11 0 29 6 39 14 24 18 11 18 -29
0z"/>
<path d="M3310 952 c0 -5 7 -9 15 -9 8 0 15 4 15 9 0 4 -7 8 -15 8 -8 0 -15
-4 -15 -8z"/>
<path d="M3500 956 c0 -10 28 -13 41 -5 10 6 7 9 -13 9 -16 0 -28 -2 -28 -4z"/>
<path d="M4250 948 c0 -4 6 -8 14 -8 8 0 17 4 20 8 2 4 -4 8 -15 8 -10 0 -19
-4 -19 -8z"/>
<path d="M5840 950 c20 -13 33 -13 25 0 -3 6 -14 10 -23 10 -15 0 -15 -2 -2
-10z"/>
<path d="M6080 950 c8 -5 20 -10 25 -10 6 0 3 5 -5 10 -8 5 -19 10 -25 10 -5
0 -3 -5 5 -10z"/>
<path d="M8738 953 c6 -2 18 -2 25 0 6 3 1 5 -13 5 -14 0 -19 -2 -12 -5z"/>
<path d="M1673 935 c0 -8 4 -12 9 -9 5 3 6 10 3 15 -9 13 -12 11 -12 -6z"/>
<path d="M2359 930 c-13 -10 -18 -19 -11 -20 6 0 12 5 12 10 0 6 7 10 15 10 8
0 15 5 15 10 0 14 -5 13 -31 -10z"/>
<path d="M4220 939 c0 -5 5 -7 10 -4 6 3 10 8 10 11 0 2 -4 4 -10 4 -5 0 -10
-5 -10 -11z"/>
<path d="M4295 940 c-3 -5 -2 -10 4 -10 5 0 13 5 16 10 3 6 2 10 -4 10 -5 0
-13 -4 -16 -10z"/>
<path d="M5737 930 c-3 -11 -1 -20 4 -20 5 0 9 7 9 16 0 8 5 12 10 9 6 -3 10
-1 10 4 0 19 -28 12 -33 -9z"/>
<path d="M8278 943 c7 -3 16 -2 19 1 4 3 -2 6 -13 5 -11 0 -14 -3 -6 -6z"/>
<path d="M5785 930 c3 -5 8 -10 11 -10 2 0 4 5 4 10 0 6 -5 10 -11 10 -5 0 -7
-4 -4 -10z"/>
<path d="M8200 930 c-8 -5 -12 -11 -10 -14 3 -2 14 2 24 10 22 15 10 19 -14 4z"/>
<path d="M4742 905 c-7 -14 -12 -34 -11 -43 0 -9 7 1 15 22 16 45 13 59 -4 21z"/>
<path d="M4860 920 c-9 -6 -10 -10 -3 -10 6 0 15 5 18 10 8 12 4 12 -15 0z"/>
<path d="M6190 926 c0 -2 7 -6 15 -10 8 -3 15 -1 15 4 0 6 -7 10 -15 10 -8 0
-15 -2 -15 -4z"/>
<path d="M9368 923 c6 -2 18 -2 25 0 6 3 1 5 -13 5 -14 0 -19 -2 -12 -5z"/>
<path d="M2275 910 c-18 -8 -17 -9 8 -9 15 -1 27 4 27 9 0 12 -8 12 -35 0z"/>
<path d="M2545 910 c-3 -6 1 -7 9 -4 18 7 21 14 7 14 -6 0 -13 -4 -16 -10z"/>
<path d="M4775 909 c4 -6 9 -8 12 -5 3 3 18 -1 34 -10 16 -8 29 -11 29 -6 0 4
-15 13 -33 20 -41 15 -50 15 -42 1z"/>
<path d="M5988 913 c-10 -2 -18 -9 -18 -14 0 -6 8 -5 20 1 11 6 20 13 20 15 0
3 -1 4 -2 4 -2 -1 -11 -3 -20 -6z"/>
<path d="M2150 906 c0 -2 9 -6 20 -9 11 -3 20 -1 20 4 0 5 -9 9 -20 9 -11 0
-20 -2 -20 -4z"/>
<path d="M4318 903 c7 -3 16 -2 19 1 4 3 -2 6 -13 5 -11 0 -14 -3 -6 -6z"/>
<path d="M8528 903 c7 -3 16 -2 19 1 4 3 -2 6 -13 5 -11 0 -14 -3 -6 -6z"/>
<path d="M2930 890 c0 -5 5 -10 10 -10 6 0 10 5 10 10 0 6 -4 10 -10 10 -5 0
-10 -4 -10 -10z"/>
<path d="M4341 878 c-5 -13 -5 -25 -1 -28 4 -3 10 -12 14 -20 3 -8 4 -2 1 13
-3 16 -1 35 6 43 9 11 9 14 0 14 -6 0 -15 -10 -20 -22z"/>
<path d="M1970 886 c0 -2 8 -10 18 -17 15 -13 16 -12 3 4 -13 16 -21 21 -21
13z"/>
<path d="M2228 883 c7 -3 16 -2 19 1 4 3 -2 6 -13 5 -11 0 -14 -3 -6 -6z"/>
<path d="M2267 879 c7 -7 15 -10 18 -7 3 3 -2 9 -12 12 -14 6 -15 5 -6 -5z"/>
<path d="M2798 883 c7 -3 16 -2 19 1 4 3 -2 6 -13 5 -11 0 -14 -3 -6 -6z"/>
<path d="M3065 880 c27 -12 35 -12 35 0 0 6 -12 10 -27 9 -25 0 -26 -1 -8 -9z"/>
<path d="M4470 880 c-13 -8 -13 -11 -1 -22 9 -8 12 -9 7 -1 -3 6 2 16 11 22
10 6 14 10 8 11 -5 0 -17 -5 -25 -10z"/>
<path d="M4548 883 c7 -3 16 -2 19 1 4 3 -2 6 -13 5 -11 0 -14 -3 -6 -6z"/>
<path d="M5830 882 c0 -4 10 -9 22 -9 18 -2 20 0 8 7 -18 12 -30 13 -30 2z"/>
<path d="M5895 880 c-17 -8 -17 -9 7 -7 15 1 24 5 22 9 -3 4 -6 8 -7 7 -1 0
-11 -4 -22 -9z"/>
<path d="M6518 883 c7 -3 16 -2 19 1 4 3 -2 6 -13 5 -11 0 -14 -3 -6 -6z"/>
<path d="M7970 886 c0 -2 7 -7 16 -10 8 -3 12 -2 9 4 -6 10 -25 14 -25 6z"/>
<path d="M2325 870 c-3 -5 -2 -10 4 -10 5 0 13 5 16 10 3 6 2 10 -4 10 -5 0
-13 -4 -16 -10z"/>
<path d="M2400 876 c0 -2 7 -7 16 -10 8 -3 12 -2 9 4 -6 10 -25 14 -25 6z"/>
<path d="M3528 873 c6 -2 18 -2 25 0 6 3 1 5 -13 5 -14 0 -19 -2 -12 -5z"/>
<path d="M3748 873 c6 -2 18 -2 25 0 6 3 1 5 -13 5 -14 0 -19 -2 -12 -5z"/>
<path d="M1861 854 c0 -11 3 -14 6 -6 3 7 2 16 -1 19 -3 4 -6 -2 -5 -13z"/>
<path d="M3401 861 c-10 -7 -7 -9 12 -8 14 1 23 5 20 10 -6 9 -15 9 -32 -2z"/>
<path d="M3837 848 c-7 -24 -1 -38 14 -38 6 0 7 6 2 13 -4 6 -6 20 -5 30 4 24
-5 21 -11 -5z"/>
<path d="M4410 858 c0 -9 5 -20 10 -23 13 -8 13 5 0 25 -8 13 -10 13 -10 -2z"/>
<path d="M2018 853 c7 -3 16 -2 19 1 4 3 -2 6 -13 5 -11 0 -14 -3 -6 -6z"/>
<path d="M2818 847 c-16 -6 -28 -15 -28 -19 0 -5 9 -4 19 2 11 5 28 7 38 4 14
-4 15 -3 4 4 -11 8 -11 10 0 15 8 3 10 5 4 5 -5 0 -22 -5 -37 -11z"/>
<path d="M3903 849 c15 -4 39 -4 55 1 21 6 15 8 -28 7 -43 0 -49 -1 -27 -8z"/>
<path d="M4520 836 c-5 -13 -16 -26 -25 -29 -12 -4 -11 -5 2 -3 10 0 22 11 28
24 5 12 16 20 23 17 7 -3 10 0 7 5 -11 17 -25 11 -35 -14z"/>
<path d="M5565 851 c-7 -12 12 -24 25 -16 11 7 4 25 -10 25 -5 0 -11 -4 -15
-9z"/>
<path d="M5676 851 c-4 -5 3 -7 14 -4 23 6 26 13 6 13 -8 0 -17 -4 -20 -9z"/>
<path d="M2613 843 c9 -2 23 -2 30 0 6 3 -1 5 -18 5 -16 0 -22 -2 -12 -5z"/>
<path d="M2875 840 c3 -5 8 -10 11 -10 2 0 4 5 4 10 0 6 -5 10 -11 10 -5 0 -7
-4 -4 -10z"/>
<path d="M5886 835 c4 -8 8 -15 10 -15 2 0 4 7 4 15 0 8 -4 15 -10 15 -5 0 -7
-7 -4 -15z"/>
<path d="M7070 840 c8 -5 20 -10 25 -10 6 0 3 5 -5 10 -8 5 -19 10 -25 10 -5
0 -3 -5 5 -10z"/>
<path d="M3705 830 c-3 -6 1 -7 9 -4 18 7 21 14 7 14 -6 0 -13 -4 -16 -10z"/>
<path d="M3793 810 c-6 -16 -10 -30 -7 -30 2 0 10 14 19 30 9 17 12 30 7 30
-4 0 -13 -13 -19 -30z"/>
<path d="M2425 820 c-3 -5 -2 -10 4 -10 5 0 13 5 16 10 3 6 2 10 -4 10 -5 0
-13 -4 -16 -10z"/>
<path d="M2610 820 c0 -5 5 -10 10 -10 6 0 10 5 10 10 0 6 -4 10 -10 10 -5 0
-10 -4 -10 -10z"/>
<path d="M2648 823 c6 -2 18 -2 25 0 6 3 1 5 -13 5 -14 0 -19 -2 -12 -5z"/>
<path d="M4715 819 c-4 -6 -5 -12 -2 -15 2 -3 7 2 10 11 7 17 1 20 -8 4z"/>
<path d="M5505 820 c3 -5 11 -10 16 -10 6 0 7 5 4 10 -3 6 -11 10 -16 10 -6 0
-7 -4 -4 -10z"/>
<path d="M4531 799 c-14 -11 -31 -17 -40 -14 -12 5 -13 3 -5 -5 9 -9 17 -9 33
0 12 6 26 8 31 5 5 -3 12 0 16 6 4 8 3 9 -4 5 -7 -4 -12 -3 -12 3 0 5 8 12 18
14 12 3 12 5 2 6 -8 0 -26 -9 -39 -20z"/>
<path d="M5486 807 c3 -10 9 -15 12 -12 3 3 0 11 -7 18 -10 9 -11 8 -5 -6z"/>
<path d="M6408 803 c7 -3 16 -2 19 1 4 3 -2 6 -13 5 -11 0 -14 -3 -6 -6z"/>
<path d="M2495 790 c3 -5 8 -10 11 -10 2 0 4 5 4 10 0 6 -5 10 -11 10 -5 0 -7
-4 -4 -10z"/>
<path d="M3315 790 c-19 -8 -19 -9 3 -9 12 -1 22 4 22 9 0 6 -1 10 -2 9 -2 0
-12 -4 -23 -9z"/>
<path d="M3835 790 c3 -5 11 -10 16 -10 6 0 7 5 4 10 -3 6 -11 10 -16 10 -6 0
-7 -4 -4 -10z"/>
<path d="M4968 793 c6 -2 18 -2 25 0 6 3 1 5 -13 5 -14 0 -19 -2 -12 -5z"/>
<path d="M5410 785 c-7 -9 -11 -17 -9 -20 3 -2 10 5 17 15 14 24 10 26 -8 5z"/>
<path d="M5628 793 c7 -3 16 -2 19 1 4 3 -2 6 -13 5 -11 0 -14 -3 -6 -6z"/>
<path d="M6460 796 c0 -2 7 -7 16 -10 8 -3 12 -2 9 4 -6 10 -25 14 -25 6z"/>
<path d="M2017 778 c-16 -12 -15 -13 9 -15 18 -1 22 2 14 7 -10 6 -6 9 11 13
20 4 21 5 3 6 -11 0 -28 -5 -37 -11z"/>
<path d="M3368 783 c6 -2 18 -2 25 0 6 3 1 5 -13 5 -14 0 -19 -2 -12 -5z"/>
<path d="M4254 778 c-5 -7 -2 -9 9 -5 9 3 18 1 21 -6 2 -7 5 -4 5 6 1 19 -24
23 -35 5z"/>
<path d="M4385 779 c-4 -6 -5 -12 -2 -15 2 -3 7 2 10 11 7 17 1 20 -8 4z"/>
<path d="M5257 778 c-16 -12 -15 -13 7 -14 17 -1 23 2 19 12 -6 17 -5 17 -26
2z"/>
<path d="M4195 770 c-3 -5 -2 -10 4 -10 5 0 13 5 16 10 3 6 2 10 -4 10 -5 0
-13 -4 -16 -10z"/>
<path d="M5171 777 c2 -1 13 -9 24 -17 19 -14 19 -14 6 3 -7 9 -18 17 -24 17
-6 0 -8 -1 -6 -3z"/>
<path d="M1958 758 c5 -5 16 -8 23 -6 8 3 3 7 -10 11 -17 4 -21 3 -13 -5z"/>
<path d="M3523 754 c0 -16 13 -19 21 -5 3 5 0 11 -7 14 -8 3 -14 -1 -14 -9z"/>
<path d="M3865 760 c3 -5 8 -10 11 -10 2 0 4 5 4 10 0 6 -5 10 -11 10 -5 0 -7
-4 -4 -10z"/>
<path d="M3060 750 c-8 -5 -10 -10 -5 -10 6 0 17 5 25 10 8 5 11 10 5 10 -5 0
-17 -5 -25 -10z"/>
<path d="M4107 740 c-3 -11 -3 -20 -1 -20 2 0 8 9 14 20 6 11 7 20 2 20 -6 0
-12 -9 -15 -20z"/>
<path d="M3455 739 c-4 -6 -5 -12 -2 -15 2 -3 7 2 10 11 7 17 1 20 -8 4z"/>
<path d="M3835 740 c-3 -6 1 -7 9 -4 18 7 21 14 7 14 -6 0 -13 -4 -16 -10z"/>
<path d="M4211 741 c-7 -5 -12 -14 -10 -20 2 -6 10 -2 17 9 14 22 13 23 -7 11z"/>
<path d="M3650 731 c0 -5 -8 -12 -17 -14 -15 -4 -15 -5 -2 -6 9 0 22 6 29 14
9 10 9 15 1 15 -6 0 -11 -4 -11 -9z"/>
<path d="M4448 733 c12 -2 30 -2 40 0 9 3 -1 5 -23 4 -22 0 -30 -2 -17 -4z"/>
<path d="M8472 720 c0 -14 2 -19 5 -12 2 6 2 18 0 25 -3 6 -5 1 -5 -13z"/>
<path d="M3713 723 c9 -2 25 -2 35 0 9 3 1 5 -18 5 -19 0 -27 -2 -17 -5z"/>
<path d="M4304 714 c-18 -14 -18 -15 4 -4 12 6 22 13 22 15 0 8 -5 6 -26 -11z"/>
<path d="M5504 714 c-18 -14 -18 -15 4 -4 12 6 22 13 22 15 0 8 -5 6 -26 -11z"/>
<path d="M6098 723 c7 -3 16 -2 19 1 4 3 -2 6 -13 5 -11 0 -14 -3 -6 -6z"/>
<path d="M3518 713 c-10 -2 -18 -9 -18 -14 0 -6 7 -6 18 -1 9 5 24 12 32 15
13 5 13 5 0 5 -8 0 -23 -2 -32 -5z"/>
<path d="M5388 713 c7 -3 16 -2 19 1 4 3 -2 6 -13 5 -11 0 -14 -3 -6 -6z"/>
<path d="M8323 713 c9 -2 23 -2 30 0 6 3 -1 5 -18 5 -16 0 -22 -2 -12 -5z"/>
<path d="M8550 711 c0 -6 4 -13 10 -16 6 -3 7 1 4 9 -7 18 -14 21 -14 7z"/>
<path d="M3650 700 c-9 -6 -10 -10 -3 -10 6 0 15 5 18 10 8 12 4 12 -15 0z"/>
<path d="M3820 700 c0 -5 5 -10 11 -10 5 0 7 5 4 10 -3 6 -8 10 -11 10 -2 0
-4 -4 -4 -10z"/>
<path d="M3579 687 c5 -5 17 -5 28 2 16 9 15 10 -9 9 -16 -2 -24 -6 -19 -11z"/>
<path d="M4023 692 c-8 -5 2 -8 24 -9 25 -1 32 2 22 8 -17 11 -30 11 -46 1z"/>
<path d="M4155 690 c-3 -6 1 -7 9 -4 18 7 21 14 7 14 -6 0 -13 -4 -16 -10z"/>
<path d="M4490 696 c0 -2 7 -7 16 -10 8 -3 12 -2 9 4 -6 10 -25 14 -25 6z"/>
<path d="M3525 681 c-6 -11 13 -26 22 -17 4 3 0 6 -8 6 -11 0 -11 2 1 10 9 6
10 10 3 10 -6 0 -14 -4 -18 -9z"/>
<path d="M3918 683 c7 -3 16 -2 19 1 4 3 -2 6 -13 5 -11 0 -14 -3 -6 -6z"/>
<path d="M4195 678 c4 -11 2 -18 -4 -18 -6 0 -11 -4 -11 -10 0 -16 17 -11 24
7 4 9 2 21 -4 27 -8 8 -9 6 -5 -6z"/>
<path d="M3293 665 c0 -8 4 -12 9 -9 5 3 6 10 3 15 -9 13 -12 11 -12 -6z"/>
<path d="M3388 673 c7 -3 16 -2 19 1 4 3 -2 6 -13 5 -11 0 -14 -3 -6 -6z"/>
<path d="M3838 673 c7 -3 16 -2 19 1 4 3 -2 6 -13 5 -11 0 -14 -3 -6 -6z"/>
<path d="M4230 669 c0 -5 5 -7 10 -4 6 3 10 8 10 11 0 2 -4 4 -10 4 -5 0 -10
-5 -10 -11z"/>
<path d="M3116 654 c-9 -23 -8 -24 12 -23 11 0 12 2 4 6 -10 4 -10 8 -1 19 7
8 7 14 1 14 -5 0 -13 -7 -16 -16z"/>
<path d="M3765 659 c-4 -6 -5 -12 -2 -15 2 -3 7 2 10 11 7 17 1 20 -8 4z"/>
<path d="M3398 653 c7 -3 16 -2 19 1 4 3 -2 6 -13 5 -11 0 -14 -3 -6 -6z"/>
<path d="M3448 653 c6 -2 18 -2 25 0 6 3 1 5 -13 5 -14 0 -19 -2 -12 -5z"/>
<path d="M3560 649 c0 -5 5 -7 10 -4 6 3 10 8 10 11 0 2 -4 4 -10 4 -5 0 -10
-5 -10 -11z"/>
<path d="M4159 643 c8 -16 8 -22 -4 -27 -8 -3 -15 -10 -15 -16 0 -6 10 -2 22
10 21 20 21 21 4 38 -18 16 -18 16 -7 -5z"/>
<path d="M6195 650 c-3 -5 -1 -10 4 -10 6 0 11 5 11 10 0 6 -2 10 -4 10 -3 0
-8 -4 -11 -10z"/>
<path d="M2568 643 c7 -3 16 -2 19 1 4 3 -2 6 -13 5 -11 0 -14 -3 -6 -6z"/>
<path d="M3970 630 c-9 -6 -10 -10 -3 -10 6 0 15 5 18 10 8 12 4 12 -15 0z"/>
<path d="M4390 630 c-9 -6 -10 -10 -3 -10 6 0 15 5 18 10 8 12 4 12 -15 0z"/>
<path d="M4658 633 c7 -3 16 -2 19 1 4 3 -2 6 -13 5 -11 0 -14 -3 -6 -6z"/>
<path d="M3240 620 c-9 -6 -10 -10 -3 -10 6 0 15 5 18 10 8 12 4 12 -15 0z"/>
<path d="M3305 610 c-3 -5 -2 -10 4 -10 5 0 13 5 16 10 3 6 2 10 -4 10 -5 0
-13 -4 -16 -10z"/>
<path d="M4025 610 c-3 -6 1 -7 9 -4 18 7 21 14 7 14 -6 0 -13 -4 -16 -10z"/>
<path d="M4367 609 c7 -7 15 -10 18 -7 3 3 -2 9 -12 12 -14 6 -15 5 -6 -5z"/>
<path d="M5058 603 c7 -3 16 -2 19 1 4 3 -2 6 -13 5 -11 0 -14 -3 -6 -6z"/>
<path d="M3421 586 c-7 -8 -25 -17 -39 -19 -27 -4 -27 -4 -2 -5 25 -1 68 23
58 33 -3 3 -11 -1 -17 -9z"/>
<path d="M4058 593 c7 -3 16 -2 19 1 4 3 -2 6 -13 5 -11 0 -14 -3 -6 -6z"/>
<path d="M4115 590 c3 -5 8 -10 11 -10 2 0 4 5 4 10 0 6 -5 10 -11 10 -5 0 -7
-4 -4 -10z"/>
<path d="M4198 593 c6 -2 18 -2 25 0 6 3 1 5 -13 5 -14 0 -19 -2 -12 -5z"/>
<path d="M4424 582 c3 -5 0 -13 -6 -15 -9 -4 -10 -6 -1 -6 17 -1 25 16 12 25
-7 4 -9 3 -5 -4z"/>
<path d="M2568 553 c7 -3 16 -2 19 1 4 3 -2 6 -13 5 -11 0 -14 -3 -6 -6z"/>
<path d="M3948 553 c7 -3 16 -2 19 1 4 3 -2 6 -13 5 -11 0 -14 -3 -6 -6z"/>
<path d="M3255 530 c-3 -5 -2 -10 4 -10 5 0 13 5 16 10 3 6 2 10 -4 10 -5 0
-13 -4 -16 -10z"/>
<path d="M4233 515 c0 -8 4 -15 9 -15 4 0 8 4 8 9 0 6 -4 12 -8 15 -5 3 -9 -1
-9 -9z"/>
<path d="M4036 503 c-6 -14 -5 -15 5 -6 7 7 10 15 7 18 -3 3 -9 -2 -12 -12z"/>
<path d="M4138 503 c7 -3 16 -2 19 1 4 3 -2 6 -13 5 -11 0 -14 -3 -6 -6z"/>
</g>
</svg>
